<?xml version="1.0" encoding="UTF-8" standalone="no"?>
<!-- Generator: Adobe Illustrator 18.0.0, SVG Export Plug-In . SVG Version: 6.00 Build 0)  -->

<svg
   xmlns:dc="http://purl.org/dc/elements/1.1/"
   xmlns:cc="http://creativecommons.org/ns#"
   xmlns:rdf="http://www.w3.org/1999/02/22-rdf-syntax-ns#"
   xmlns:svg="http://www.w3.org/2000/svg"
   xmlns="http://www.w3.org/2000/svg"
   xmlns:sodipodi="http://sodipodi.sourceforge.net/DTD/sodipodi-0.dtd"
   xmlns:inkscape="http://www.inkscape.org/namespaces/inkscape"
   version="1.1"
   id="Capa_1"
   x="0px"
   y="0px"
   viewBox="0 0 324.973 324.973"
   style="enable-background:new 0 0 324.973 324.973;"
   xml:space="preserve"
   inkscape:version="0.91 r13725"
   sodipodi:docname="accessory128.svg"><metadata
     id="metadata39"><rdf:RDF><cc:Work
         rdf:about=""><dc:format>image/svg+xml</dc:format><dc:type
           rdf:resource="http://purl.org/dc/dcmitype/StillImage" /></cc:Work></rdf:RDF></metadata><defs
     id="defs37" /><sodipodi:namedview
     pagecolor="#ffffff"
     bordercolor="#666666"
     borderopacity="1"
     objecttolerance="10"
     gridtolerance="10"
     guidetolerance="10"
     inkscape:pageopacity="0"
     inkscape:pageshadow="2"
     inkscape:window-width="640"
     inkscape:window-height="480"
     id="namedview35"
     showgrid="false"
     inkscape:zoom="0.7262142"
     inkscape:cx="162.4865"
     inkscape:cy="162.4865"
     inkscape:window-x="1010"
     inkscape:window-y="534"
     inkscape:window-maximized="0"
     inkscape:current-layer="Capa_1" /><path
     d="M309.588,92.45c-16.017-24.299-40.978-37.143-72.184-37.143c-28.069,0-55.47,10.212-71.754,19.77l-4.748,2.78  c-5.824,3.406-13.33,7.795-21.893,12.918c-9.984-10.212-29.437-19.254-40.632-21.565c-2.012-0.412-4.1,0.229-5.528,1.707  L74.25,90.169c-1.438,1.489-2.008,3.615-1.505,5.625c0.502,2.009,2.005,3.616,3.976,4.253l30.964,10.005  c-37.04,23.526-79.149,53.257-96.335,77.284c-9.486,13.263-13.053,26.197-10.599,38.445c4.347,21.699,26.706,35.547,38.718,42.985  c0.972,0.602,2.066,0.899,3.158,0.899c1.294,0,2.582-0.417,3.655-1.241c67.693-51.983,163.283-59.746,214.238-59.746  c22.511,0,37.017,1.521,37.161,1.537c2.073,0.219,4.108-0.646,5.382-2.292c0.457-0.59,11.267-14.695,17.549-35.873  C329.028,143.681,325.215,116.155,309.588,92.45z"
     id="path3" /><g
     id="g5" /><g
     id="g7" /><g
     id="g9" /><g
     id="g11" /><g
     id="g13" /><g
     id="g15" /><g
     id="g17" /><g
     id="g19" /><g
     id="g21" /><g
     id="g23" /><g
     id="g25" /><g
     id="g27" /><g
     id="g29" /><g
     id="g31" /><g
     id="g33" /></svg>