<?xml version="1.0" encoding="iso-8859-1"?>
<!-- Generator: Adobe Illustrator 18.0.0, SVG Export Plug-In . SVG Version: 6.00 Build 0)  -->
<!DOCTYPE svg PUBLIC "-//W3C//DTD SVG 1.1//EN" "http://www.w3.org/Graphics/SVG/1.1/DTD/svg11.dtd">
<svg version="1.1" id="Capa_1" xmlns="http://www.w3.org/2000/svg" xmlns:xlink="http://www.w3.org/1999/xlink" x="0px" y="0px"
	 viewBox="0 0 325 325" style="enable-background:new 0 0 325 325;" xml:space="preserve">
<g>
	<rect x="64.5" y="57" width="196" height="148.703"/>
	<path d="M188.5,6c0-3.313-2.687-6-6-6h-40c-3.314,0-6,2.687-6,6v35h52V6z"/>
	<path d="M284.5,222h-24v-0.297h-196V222h-24c-3.314,0-6,2.686-6,6v33c0,3.314,2.686,6,6,6h30.164l-23.799,49.396
		c-0.896,1.859-0.773,4.049,0.324,5.796C48.288,323.94,50.207,325,52.27,325h39.408c2.305,0,4.405-1.319,5.405-3.396L123.391,267
		h78.219l26.307,54.604c1,2.076,3.101,3.396,5.405,3.396h39.408c2.064,0,3.982-1.06,5.081-2.809c1.098-1.747,1.22-3.936,0.324-5.796
		L254.336,267H284.5c3.314,0,6-2.686,6-6v-33C290.5,224.686,287.814,222,284.5,222z"/>
</g>
<g>
</g>
<g>
</g>
<g>
</g>
<g>
</g>
<g>
</g>
<g>
</g>
<g>
</g>
<g>
</g>
<g>
</g>
<g>
</g>
<g>
</g>
<g>
</g>
<g>
</g>
<g>
</g>
<g>
</g>
</svg>
