<?xml version="1.0" encoding="iso-8859-1"?>
<!-- Generator: Adobe Illustrator 18.0.0, SVG Export Plug-In . SVG Version: 6.00 Build 0)  -->
<!DOCTYPE svg PUBLIC "-//W3C//DTD SVG 1.1//EN" "http://www.w3.org/Graphics/SVG/1.1/DTD/svg11.dtd">
<svg version="1.1" id="Capa_1" xmlns="http://www.w3.org/2000/svg" xmlns:xlink="http://www.w3.org/1999/xlink" x="0px" y="0px"
	 viewBox="0 0 324.98 324.98" style="enable-background:new 0 0 324.98 324.98;" xml:space="preserve">
<g>
	<g>
		<path d="M124.552,321.113c-2.593,0-5.187-0.978-7.18-2.94c-4.029-3.966-4.081-10.446-0.115-14.476l170.595-173.331
			c22.177-22.534,22.27-59.105,0.205-81.524l-7.685-7.809c-10.596-10.766-24.692-16.694-39.692-16.694
			c-15.115,0-29.349,6.006-40.082,16.91L31.038,211.664c-14.098,14.322-14.158,37.63-0.099,51.916l5.313,5.398
			c7.083,7.197,17.031,11.325,27.293,11.325c9.582,0,18.376-3.574,24.764-10.064l152.214-154.656
			c5.733-5.826,5.767-15.273,0.072-21.059l-2.837-2.884c-2.69-2.733-6.264-4.238-10.062-4.238c-3.838,0-7.461,1.534-10.202,4.318
			L76.805,234.671c-3.966,4.028-10.446,4.08-14.476,0.115c-4.029-3.965-4.081-10.446-0.115-14.476l140.691-142.95
			c6.62-6.726,15.425-10.43,24.792-10.43c9.327,0,18.082,3.676,24.652,10.351l2.837,2.885c13.487,13.701,13.454,36.032-0.073,49.776
			L102.901,284.599c-10.267,10.431-24.242,16.176-39.354,16.176c-15.711,0-30.976-6.355-41.884-17.438l-5.313-5.397
			c-21.854-22.205-21.792-58.395,0.138-80.677l169.56-170.414c14.572-14.807,33.988-22.982,54.633-22.982
			c20.529,0,39.808,8.1,54.282,22.807l7.685,7.809c29.856,30.337,29.764,79.792-0.207,110.244L131.847,318.057
			C129.844,320.092,127.198,321.113,124.552,321.113z"/>
	</g>
</g>
<g>
</g>
<g>
</g>
<g>
</g>
<g>
</g>
<g>
</g>
<g>
</g>
<g>
</g>
<g>
</g>
<g>
</g>
<g>
</g>
<g>
</g>
<g>
</g>
<g>
</g>
<g>
</g>
<g>
</g>
</svg>
