<?xml version="1.0" encoding="iso-8859-1"?>
<!-- Generator: Adobe Illustrator 18.0.0, SVG Export Plug-In . SVG Version: 6.00 Build 0)  -->
<!DOCTYPE svg PUBLIC "-//W3C//DTD SVG 1.1//EN" "http://www.w3.org/Graphics/SVG/1.1/DTD/svg11.dtd">
<svg version="1.1" id="Capa_1" xmlns="http://www.w3.org/2000/svg" xmlns:xlink="http://www.w3.org/1999/xlink" x="0px" y="0px"
	 viewBox="0 0 326.953 326.953" style="enable-background:new 0 0 326.953 326.953;" xml:space="preserve">
<g>
	<path d="M324.61,34.087c-3.125-3.123-8.189-3.123-11.314,0c-19.991,19.991-29.753,18.383-42.11,16.351
		c-17.411-2.865-32.927-3.105-58.015,20.383c0.835,0.77,1.665,1.544,2.471,2.35l6.35,6.349c0.857,0.856,1.674,1.739,2.485,2.626
		c21.154-19.693,31.846-17.938,44.109-15.92c14.167,2.334,30.223,4.978,56.024-20.823C327.734,42.276,327.734,37.212,324.61,34.087z
		"/>
	<polygon points="224.476,82.144 224.476,82.144 224.463,82.13 	"/>
	<path d="M188.877,117.598c1.676,3.388,2.568,7.14,2.568,11.03c0,6.655-2.591,12.911-7.297,17.616l-10.266,10.265l47.724,47.725
		c31.741-36.254,33.174-89.003,2.869-122.09c-1.371,1.275-2.784,2.639-4.246,4.101L188.877,117.598z"/>
	<path d="M152.126,161.296l23.538-23.537c2.438-2.439,3.781-5.682,3.781-9.13c0-3.45-1.344-6.692-3.782-9.132
		c-2.438-2.438-5.682-3.781-9.131-3.781c-3.45,0-6.692,1.343-9.132,3.781l-23.536,23.538c-2.439,2.439-3.783,5.683-3.783,9.132
		c0,3.449,1.343,6.691,3.781,9.131c2.438,2.438,5.682,3.781,9.131,3.781C146.443,165.08,149.686,163.736,152.126,161.296z"/>
	<path d="M90.913,73.542l47.737,47.737l10.265-10.266c4.706-4.706,10.962-7.297,17.617-7.297c3.891,0,7.643,0.893,11.031,2.568
		l31.352-31.354c1.451-1.451,2.864-2.809,4.255-4.111c-15.477-14.246-35.846-22.065-57.759-22.065
		C132.172,48.755,109.027,57.719,90.913,73.542z"/>
	<path d="M160.611,169.782c-4.706,4.706-10.963,7.298-17.617,7.298c-6.654,0-12.911-2.591-17.616-7.296
		c-4.706-4.706-7.297-10.963-7.296-17.617c0-6.654,2.592-12.911,7.298-17.616l1.957-1.957L79.432,84.688l-49.995,49.995
		c-37.173,37.172-39.447,95.383-5.069,129.761l6.349,6.349c15.744,15.745,37.135,24.416,60.231,24.416
		c25.45,0,50.793-10.747,69.53-29.485l49.995-49.995l-47.904-47.904L160.611,169.782z"/>
</g>
<g>
</g>
<g>
</g>
<g>
</g>
<g>
</g>
<g>
</g>
<g>
</g>
<g>
</g>
<g>
</g>
<g>
</g>
<g>
</g>
<g>
</g>
<g>
</g>
<g>
</g>
<g>
</g>
<g>
</g>
</svg>
