<?xml version="1.0" encoding="iso-8859-1"?>
<!-- Generator: Adobe Illustrator 18.0.0, SVG Export Plug-In . SVG Version: 6.00 Build 0)  -->
<!DOCTYPE svg PUBLIC "-//W3C//DTD SVG 1.1//EN" "http://www.w3.org/Graphics/SVG/1.1/DTD/svg11.dtd">
<svg version="1.1" id="Capa_1" xmlns="http://www.w3.org/2000/svg" xmlns:xlink="http://www.w3.org/1999/xlink" x="0px" y="0px"
	 viewBox="0 0 325 325" style="enable-background:new 0 0 325 325;" xml:space="preserve">
<g>
	<path d="M215.017,325h5.462c1.708,0,3.335-0.728,4.474-2.002l36.096-40.387c0.983-1.1,1.526-2.523,1.526-3.998v-4.689h-47.558V325z
		"/>
	<path d="M71.312,275.112c1.134,1.143,2.67,1.774,4.26,1.774c0.245,0,0.492-0.015,0.739-0.046l63.039-7.828l-61.444-61.502
		L69.624,270.1C69.379,271.941,70.003,273.793,71.312,275.112z"/>
	<path d="M285.423,61.651c-17.163-17.163-42.909-19.592-58.818-6.069l64.625,64.685C304.793,104.368,302.47,78.699,285.423,61.651z"
		/>
	<polygon points="87.516,194.493 152.374,259.41 279.99,131.653 215.133,66.736 	"/>
	<path d="M143.191,284.658l-64.87,8.056c-0.904,0.114-1.83,0.173-2.749,0.173c-5.823,0-11.516-2.371-15.62-6.507
		c-4.765-4.805-7.078-11.677-6.189-18.379l8.533-64.488c0.63-4.765,2.848-9.262,6.244-12.662l144.611-144.77
		c0.676-0.676,1.399-1.31,2.163-1.895c9.632-8.587,22.32-13.302,35.853-13.302c3.82,0,7.638,0.392,11.407,1.121V6
		c0-3.313-2.686-6-6-6H30.993c-3.313,0-6,2.687-6,6v313c0,3.314,2.687,6,6,6h168.024v-59.075c0-4.418,3.582-8,8-8h55.558v-86.197
		l-106.53,106.646C152.598,281.824,148.034,284.057,143.191,284.658z"/>
</g>
<g>
</g>
<g>
</g>
<g>
</g>
<g>
</g>
<g>
</g>
<g>
</g>
<g>
</g>
<g>
</g>
<g>
</g>
<g>
</g>
<g>
</g>
<g>
</g>
<g>
</g>
<g>
</g>
<g>
</g>
</svg>
