<?xml version="1.0" encoding="iso-8859-1"?>
<!-- Generator: Adobe Illustrator 18.0.0, SVG Export Plug-In . SVG Version: 6.00 Build 0)  -->
<!DOCTYPE svg PUBLIC "-//W3C//DTD SVG 1.1//EN" "http://www.w3.org/Graphics/SVG/1.1/DTD/svg11.dtd">
<svg version="1.1" id="Capa_1" xmlns="http://www.w3.org/2000/svg" xmlns:xlink="http://www.w3.org/1999/xlink" x="0px" y="0px"
	 viewBox="0 0 325 325" style="enable-background:new 0 0 325 325;" xml:space="preserve">
<g>
	<path d="M239.577,44.489H47.271c-3.313,0-6,2.687-6,6V319c0,3.314,2.687,6,6,6h139.535v-40.646c0-12.131,9.869-22,22-22h36.771
		V50.489C245.577,47.176,242.891,44.489,239.577,44.489z"/>
	<path d="M202.806,284.354V325l42.771-46.646h-36.771C205.492,278.354,202.806,281.041,202.806,284.354z"/>
	<path d="M277.729,0H85.423c-3.313,0-6,2.687-6,6v22.489h160.154c12.131,0,22,9.869,22,22v13.623v198.242v16v2.156h16.152
		c3.314,0,6-2.687,6-6V6C283.729,2.687,281.043,0,277.729,0z"/>
</g>
<g>
</g>
<g>
</g>
<g>
</g>
<g>
</g>
<g>
</g>
<g>
</g>
<g>
</g>
<g>
</g>
<g>
</g>
<g>
</g>
<g>
</g>
<g>
</g>
<g>
</g>
<g>
</g>
<g>
</g>
</svg>
