<?xml version="1.0" encoding="iso-8859-1"?>
<!-- Generator: Adobe Illustrator 18.0.0, SVG Export Plug-In . SVG Version: 6.00 Build 0)  -->
<!DOCTYPE svg PUBLIC "-//W3C//DTD SVG 1.1//EN" "http://www.w3.org/Graphics/SVG/1.1/DTD/svg11.dtd">
<svg version="1.1" id="Capa_1" xmlns="http://www.w3.org/2000/svg" xmlns:xlink="http://www.w3.org/1999/xlink" x="0px" y="0px"
	 viewBox="0 0 325 325" style="enable-background:new 0 0 325 325;" xml:space="preserve">
<path d="M323.242,106.696l-25.265-25.265c-1.125-1.126-2.651-1.758-4.242-1.758c-1.592,0-3.117,0.632-4.243,1.758l-8.447,8.447
	C245.939,65.264,201.74,59.04,162.019,71.173l33.377-33.376c2.19,0.831,4.528,1.284,6.94,1.284c5.22,0,10.128-2.033,13.819-5.725
	c7.617-7.618,7.617-20.015-0.001-27.633C212.464,2.032,207.557,0,202.338,0c-5.22,0-10.127,2.032-13.817,5.724
	c-5.602,5.602-7.069,13.782-4.434,20.753l-61.932,61.93l-6.975-6.975c-2.342-2.344-6.143-2.344-8.484,0l-25.265,25.265
	c-1.126,1.125-1.758,2.651-1.758,4.242c0,1.592,0.632,3.117,1.758,4.243l6.975,6.975l-61.926,61.925
	c-2.189-0.831-4.528-1.284-6.94-1.284c-5.219,0-10.126,2.032-13.817,5.723C2.032,192.211,0,197.118,0,202.338
	c0,5.22,2.032,10.127,5.724,13.816c3.69,3.691,8.597,5.724,13.815,5.724c5.22,0,10.126-2.032,13.817-5.724
	c5.604-5.602,7.07-13.783,4.434-20.754l33.383-33.383c-12.134,39.724-5.907,83.923,18.709,119.026l-8.449,8.449
	c-2.344,2.343-2.344,6.142,0,8.484l25.265,25.265c1.171,1.172,2.707,1.758,4.242,1.758c1.535,0,3.071-0.586,4.242-1.758
	l25.265-25.265c2.344-2.343,2.344-6.142,0-8.484l-25.265-25.265c-2.342-2.344-6.143-2.344-8.484,0l-5.297,5.297
	c-27.007-40.503-27.007-93.873-0.001-134.377l5.298,5.298c1.171,1.171,2.707,1.757,4.242,1.757c1.535,0,3.071-0.586,4.242-1.757
	l25.265-25.264c1.126-1.126,1.758-2.651,1.758-4.243c0-1.591-0.632-3.117-1.758-4.242l-5.298-5.298
	c40.502-27.006,93.872-27.007,134.377-0.001l-5.297,5.298c-2.343,2.343-2.343,6.142,0,8.484l25.264,25.265
	c1.126,1.126,2.651,1.758,4.243,1.758c1.591,0,3.117-0.632,4.242-1.758l25.265-25.265
	C325.586,112.838,325.586,109.039,323.242,106.696z"/>
<g>
</g>
<g>
</g>
<g>
</g>
<g>
</g>
<g>
</g>
<g>
</g>
<g>
</g>
<g>
</g>
<g>
</g>
<g>
</g>
<g>
</g>
<g>
</g>
<g>
</g>
<g>
</g>
<g>
</g>
</svg>
