<?xml version="1.0" encoding="iso-8859-1"?>
<!-- Generator: Adobe Illustrator 18.0.0, SVG Export Plug-In . SVG Version: 6.00 Build 0)  -->
<!DOCTYPE svg PUBLIC "-//W3C//DTD SVG 1.1//EN" "http://www.w3.org/Graphics/SVG/1.1/DTD/svg11.dtd">
<svg version="1.1" id="Capa_1" xmlns="http://www.w3.org/2000/svg" xmlns:xlink="http://www.w3.org/1999/xlink" x="0px" y="0px"
	 viewBox="0 0 325.002 325.002" style="enable-background:new 0 0 325.002 325.002;" xml:space="preserve">
<path d="M323.244,160.099l-25.265-25.265c-1.125-1.126-2.651-1.758-4.242-1.758c-1.592,0-3.117,0.632-4.243,1.758l-25.264,25.265
	c-2.343,2.343-2.343,6.142,0,8.484l3.065,3.065c-11.157,4.959-22.967,7.217-37.229,7.217c-19.121,0-31.808-4.233-41.449-9.22
	l3.392-3.392c2.343-2.343,2.343-6.142,0-8.484l-25.264-25.265c-1.126-1.126-2.651-1.758-4.243-1.758
	c-1.591,0-3.117,0.632-4.242,1.758l-6.976,6.977L83.696,71.894c1.05-2.456,1.634-5.156,1.634-7.991
	c0-11.251-9.153-20.404-20.404-20.404c-11.25,0-20.403,9.153-20.403,20.404c0,11.25,9.153,20.403,20.403,20.403
	c2.542,0,4.967-0.488,7.213-1.342l49.012,49.012c-7.521-1.727-16.229-2.818-26.417-2.818c-20.07,0-36.294,3.969-52.1,12.803
	l-7.126-7.126c-1.126-1.126-2.651-1.758-4.243-1.758c-1.591,0-3.117,0.632-4.242,1.758L1.758,160.099
	c-2.344,2.343-2.344,6.142,0,8.484l25.265,25.265c1.125,1.126,2.651,1.758,4.242,1.758c1.592,0,3.117-0.632,4.243-1.758
	l25.264-25.265c2.343-2.343,2.343-6.142,0-8.484l-6.302-6.303c9.16-4.537,21.732-8.639,40.264-8.639
	c19.231,0,31.939,4.275,41.585,9.289l-3.323,3.323c-2.344,2.343-2.344,6.142,0,8.484l25.265,25.265
	c1.125,1.126,2.651,1.758,4.242,1.758c1.592,0,3.117-0.632,4.243-1.758l6.974-6.974l68.952,68.952
	c-0.949,2.353-1.485,4.915-1.485,7.604c0,11.25,9.153,20.403,20.404,20.403c11.25,0,20.403-9.153,20.403-20.403
	c0-11.25-9.153-20.403-20.403-20.403c-2.689,0-5.252,0.536-7.605,1.485l-50.08-50.08c7.467,1.695,16.092,2.763,26.161,2.763
	c18.688,0,34.435-3.591,49.202-11.244l10.226,10.227c1.126,1.126,2.651,1.758,4.243,1.758c1.591,0,3.117-0.632,4.242-1.758
	l25.265-25.265C325.588,166.24,325.588,162.441,323.244,160.099z"/>
<g>
</g>
<g>
</g>
<g>
</g>
<g>
</g>
<g>
</g>
<g>
</g>
<g>
</g>
<g>
</g>
<g>
</g>
<g>
</g>
<g>
</g>
<g>
</g>
<g>
</g>
<g>
</g>
<g>
</g>
</svg>
