<?xml version="1.0" encoding="iso-8859-1"?>
<!-- Generator: Adobe Illustrator 18.0.0, SVG Export Plug-In . SVG Version: 6.00 Build 0)  -->
<!DOCTYPE svg PUBLIC "-//W3C//DTD SVG 1.1//EN" "http://www.w3.org/Graphics/SVG/1.1/DTD/svg11.dtd">
<svg version="1.1" id="Capa_1" xmlns="http://www.w3.org/2000/svg" xmlns:xlink="http://www.w3.org/1999/xlink" x="0px" y="0px"
	 viewBox="0 0 325 325" style="enable-background:new 0 0 325 325;" xml:space="preserve">
<g>
	<path d="M319,55.26c3.314,0,6-2.687,6-6V6c0-3.313-2.686-6-6-6h-43.26c-3.313,0-6,2.687-6,6v13.63h-79.61V6c0-3.313-2.686-6-6-6
		h-43.26c-3.314,0-6,2.687-6,6v13.63H55.26V6c0-3.313-2.687-6-6-6H6C2.687,0,0,2.687,0,6v43.26c0,3.313,2.687,6,6,6h13.63v79.611H6
		c-3.313,0-6,2.687-6,6v43.259c0,3.314,2.687,6,6,6h13.63v79.61H6c-3.313,0-6,2.687-6,6V319c0,3.314,2.687,6,6,6h43.26
		c3.313,0,6-2.686,6-6v-13.63h79.61V319c0,3.314,2.686,6,6,6h43.26c3.314,0,6-2.686,6-6v-13.63h79.61V319c0,3.314,2.687,6,6,6H319
		c3.314,0,6-2.686,6-6v-43.26c0-3.313-2.686-6-6-6h-13.63v-79.61H319c3.314,0,6-2.686,6-6v-43.259c0-3.313-2.686-6-6-6h-13.63V55.26
		H319z M289.37,134.871h-13.63c-3.313,0-6,2.687-6,6v43.259c0,3.314,2.687,6,6,6h13.63v79.61h-13.63c-3.313,0-6,2.687-6,6v13.63
		h-79.61v-13.63c0-3.313-2.686-6-6-6h-43.26c-3.314,0-6,2.687-6,6v13.63H55.26v-13.63c0-3.313-2.687-6-6-6H35.63v-79.61h13.63
		c3.313,0,6-2.686,6-6v-43.259c0-3.313-2.687-6-6-6H35.63V55.26h13.63c3.313,0,6-2.687,6-6V35.63h79.61v13.63c0,3.313,2.686,6,6,6
		h43.26c3.314,0,6-2.687,6-6V35.63h79.61v13.63c0,3.313,2.687,6,6,6h13.63V134.871z"/>
	<circle cx="162.5" cy="162.5" r="13.283"/>
</g>
<g>
</g>
<g>
</g>
<g>
</g>
<g>
</g>
<g>
</g>
<g>
</g>
<g>
</g>
<g>
</g>
<g>
</g>
<g>
</g>
<g>
</g>
<g>
</g>
<g>
</g>
<g>
</g>
<g>
</g>
</svg>
