<?xml version="1.0" encoding="iso-8859-1"?>
<!-- Generator: Adobe Illustrator 18.0.0, SVG Export Plug-In . SVG Version: 6.00 Build 0)  -->
<!DOCTYPE svg PUBLIC "-//W3C//DTD SVG 1.1//EN" "http://www.w3.org/Graphics/SVG/1.1/DTD/svg11.dtd">
<svg version="1.1" id="Capa_1" xmlns="http://www.w3.org/2000/svg" xmlns:xlink="http://www.w3.org/1999/xlink" x="0px" y="0px"
	 viewBox="0 0 329.004 329.004" style="enable-background:new 0 0 329.004 329.004;" xml:space="preserve">
<g>
	<path d="M205.87,66.834c1.027,0.44,2.096,0.648,3.147,0.648c3.104,0,6.057-1.817,7.357-4.851l20.656-48.197
		c1.74-4.061-0.141-8.764-4.202-10.505c-4.059-1.74-8.763,0.142-10.505,4.202l-20.656,48.197
		C199.928,60.39,201.809,65.093,205.87,66.834z"/>
	<path d="M112.227,62.594c1.251,3.128,4.255,5.03,7.431,5.03c0.988,0,1.994-0.185,2.969-0.574c4.102-1.641,6.097-6.297,4.456-10.399
		L107.607,7.963c-1.64-4.101-6.291-6.098-10.399-4.456c-4.102,1.641-6.097,6.297-4.456,10.399L112.227,62.594z"/>
	<path d="M5.208,109.599L53.4,130.267c1.028,0.44,2.098,0.649,3.149,0.649c3.103,0,6.056-1.816,7.356-4.849
		c1.741-4.061-0.139-8.765-4.199-10.506L11.515,94.894c-4.063-1.739-8.765,0.139-10.506,4.199
		C-0.732,103.154,1.148,107.858,5.208,109.599z"/>
	<path d="M53.717,204.843L5.029,224.33c-4.102,1.642-6.097,6.298-4.454,10.399c1.251,3.127,4.255,5.029,7.43,5.029
		c0.989,0,1.995-0.185,2.97-0.575l48.688-19.487c4.101-1.642,6.097-6.298,4.454-10.399
		C62.476,205.197,57.819,203.199,53.717,204.843z"/>
	<path d="M323.793,225.245l-48.209-20.654c-4.063-1.74-8.764,0.143-10.504,4.203c-1.74,4.061,0.142,8.764,4.203,10.504
		l48.209,20.654c1.027,0.44,2.096,0.649,3.146,0.649c3.104,0,6.058-1.817,7.357-4.852
		C329.736,231.688,327.855,226.986,323.793,225.245z"/>
	<path d="M272.305,130.588c0.989,0,1.995-0.185,2.97-0.575l48.7-19.491c4.102-1.642,6.097-6.298,4.454-10.399
		c-1.641-4.102-6.299-6.101-10.4-4.454l-48.7,19.491c-4.102,1.642-6.097,6.298-4.454,10.399
		C266.126,128.686,269.13,130.588,272.305,130.588z"/>
	<path d="M206.684,165.981c0-3.367-2.727-6.32-5.837-6.32c-6.956,0-9.402,6.342-10.23,11.661c-0.042,0.307-0.084,0.796-0.126,1.455
		h10.355C203.792,172.777,206.684,169.41,206.684,165.981z"/>
	<path d="M127.6,159.183c-2.943,0-5.833,3.367-5.833,6.798c0,3.43,2.89,6.796,5.833,6.796h10.363
		c-0.049-0.793-0.097-1.376-0.143-1.724C137.136,166.633,134.894,159.183,127.6,159.183z"/>
	<path d="M154.482,188.777c0.606,25.871,0.969,68.87,0.969,86.207c0,0.172-0.015,0.339-0.025,0.508h17.59
		c-0.006-0.129-0.02-0.257-0.02-0.388c0-17.362,0.363-60.507,0.972-86.327H154.482z"/>
	<path d="M164.305,71.95c-0.018,0-0.037,0-0.055,0h-0.166c-0.018,0-0.036,0-0.055,0c-25.429,0.056-49.266,9.752-67.143,27.317
		c-18.028,17.714-27.957,41.466-27.957,66.879c0,28.487,12.264,54.773,33.646,72.117c3.257,2.643,8.688,11.001,8.829,37.228h28.07
		c-0.011-0.169-0.025-0.336-0.025-0.508c0-24.978-0.442-63.633-0.962-86.207H127.6c-11.835,0-21.833-10.439-21.833-22.796
		c0-12.357,9.998-22.798,21.833-22.798c13.631,0,23.607,9.75,26.035,25.446c0.112,0.722,0.22,2.145,0.324,4.147h20.536
		c0.1-1.875,0.204-3.215,0.311-3.909c2.419-15.55,12.396-25.207,26.041-25.207c11.837,0,21.837,10.222,21.837,22.32
		c0,12.357-10,22.796-21.837,22.796h-10.889c-0.52,22.506-0.963,61.296-0.963,86.327c0,0.131-0.014,0.259-0.02,0.388h27.948
		c0.104-26.696,5.563-35.138,8.836-37.79c21.695-17.606,33.644-43.018,33.644-71.555c0-25.414-9.928-49.165-27.955-66.879
		C213.571,81.702,189.734,72.006,164.305,71.95z"/>
	<path d="M111.412,320.072c0,3.313,2.687,6,6,6h93.507c3.313,0,6-2.687,6-6v-28.58H111.412V320.072z"/>
</g>
<g>
</g>
<g>
</g>
<g>
</g>
<g>
</g>
<g>
</g>
<g>
</g>
<g>
</g>
<g>
</g>
<g>
</g>
<g>
</g>
<g>
</g>
<g>
</g>
<g>
</g>
<g>
</g>
<g>
</g>
</svg>
