<svg xmlns="http://www.w3.org/2000/svg" xmlns:xlink="http://www.w3.org/1999/xlink" version="1.1" x="0px" y="0px" viewBox="0 0 632.7 155.8" enable-background="new 0 0 632.7 155.8" xml:space="preserve" id="logo_webcd">
<g >	
	<g id="logotype">
		<path fill="#66C3D4" d="M150.7 67.7c-4.2 34.2-27.3 39.4-34.6 35.8c-7.2-3.5 3.4-38.5 4.8-43.9c2.7-10.6 4.8-20.3 4.8-23.3 c0-5.4-3.2-9.6-8.8-9.6c-11.2 0-21 8.2-24.8 8.2c-5.6 0-11.3-8.4-23.6-8.4c-23.8 0-51.3 26.9-53.9 66.9 c-1.5 23.2 9.6 35.5 25.1 35.5c19.8 0 30.8-17.1 34-17.4c3.3-0.2-3.4 16.9 20.2 17.4c17.5 0.3 36.5-3.7 50.1-14.7 c-12.8 24.8-38.3 41.7-67.6 41.7C34.2 155.8 0 120.9 0 77.9C0 34.9 34.2 0 76.4 0c36.5 0 67.1 26.2 74.6 61.1 C151 63.5 150.9 65.7 150.7 67.7z M83.6 55.4c-1.4 16.4-15.7 41.3-21.1 41.2c-4 0-3.9-5.7-3.5-8.4c2.8-18.7 14.4-38.8 20.8-38.8 C82.7 49.5 83.8 52.6 83.6 55.4z"/>
	</g>
	<g id="firmname">
		<path fill="#221E1F" d="M275.1 121.9h-22.8l-14.5-43l-14.6 43h-22.6L173.9 43h22.6l15.3 47.7L227.2 43h21.2l15.3 47.7L279 43h22.8 L275.1 121.9z M324 90.2c0.7 4.3 2.9 7.8 6.7 10.6c3.8 2.7 8.1 4.1 12.8 4.1c7.7 0 14-2.6 19-7.8l12.3 13.3 c-8.9 8.4-19.3 12.6-31.2 12.6c-11.9 0-21.8-3.7-29.6-11.1c-7.8-7.4-11.7-17.3-11.7-29.7c0-12.4 4-22.3 11.9-29.6 c7.9-7.3 17.3-11 28.1-11c10.8 0 20 3.3 27.5 9.8c7.5 6.6 11.3 15.6 11.3 27v11.7H324z M353.8 63.6c-3-2.5-6.7-3.8-11-3.8 c-4.3 0-8.3 1.3-11.9 4c-3.6 2.6-5.7 6.2-6.3 10.7H359C358.6 69.8 356.8 66.2 353.8 63.6z M459.7 111.2 c-7.3 7.9-15.6 11.9-24.9 11.9c-9.3 0-17-3.9-23.1-11.6v10.4h-21.9V13h21.9v38.7c6-6.7 13.8-10.1 23.4-10.1c9.5 0 17.9 3.7 25 11.2 c7.1 7.5 10.7 17.1 10.7 28.8C470.6 93.4 467 103.3 459.7 111.2z M443 66.6c-3.7-4.3-8.1-6.5-13.3-6.5c-5.2 0-9.5 2.1-13.1 6.4 c-3.6 4.3-5.3 9.6-5.3 16s1.8 11.6 5.3 15.7c3.6 4.1 7.9 6.1 12.9 6.1c5.1 0 9.5-2 13.3-6.1c3.8-4.1 5.7-9.3 5.7-15.6 C448.6 76.2 446.7 70.9 443 66.6z M528.5 63.5c-3.7-1.7-7.3-2.5-10.9-2.5c-5.7 0-10.7 1.9-14.8 5.7c-4.1 3.8-6.2 9-6.2 15.7 c0 6.7 2.1 11.9 6.2 15.6c4.1 3.7 9 5.6 14.5 5.6c7.3 0 13.9-3.7 19.7-11l13 14.7c-10.1 10.6-21.1 15.8-32.9 15.8 c-11.8 0-21.7-3.7-29.9-11.2c-8.1-7.5-12.2-17.3-12.2-29.3c0-12.1 4.1-21.9 12.3-29.5c8.2-7.6 18-11.4 29.3-11.4 c5.6 0 11.4 1.2 17.2 3.5c5.8 2.3 10.9 5.8 15.3 10.4l-11.4 15C535.3 67.5 532.2 65.2 528.5 63.5z M610.8 121.9v-10.4 c-6.1 7.7-13.9 11.6-23.1 11.6c-9.3 0-17.6-4-24.9-11.9c-7.3-7.9-11-17.8-11-29.5c0-11.7 3.6-21.3 10.7-28.8 c7.1-7.5 15.4-11.2 25-11.2c9.5 0 17.3 3.4 23.4 10.1V13h21.9v108.9H610.8z M605.8 66.5c-3.6-4.3-7.9-6.4-13.1-6.4 c-5.2 0-9.6 2.2-13.3 6.5c-3.7 4.3-5.6 9.6-5.6 16c0 6.4 1.9 11.6 5.7 15.6c3.8 4.1 8.2 6.1 13.3 6.1c5.1 0 9.4-2 12.9-6.1 c3.5-4.1 5.3-9.3 5.3-15.7S609.3 70.8 605.8 66.5z"/>
	</g>
</g>
</svg>
