<?xml version="1.0" encoding="UTF-8" standalone="no"?>
<!-- Generator: Adobe Illustrator 15.1.0, SVG Export Plug-In . SVG Version: 6.00 Build 0)  -->

<svg
   xmlns:dc="http://purl.org/dc/elements/1.1/"
   xmlns:cc="http://creativecommons.org/ns#"
   xmlns:rdf="http://www.w3.org/1999/02/22-rdf-syntax-ns#"
   xmlns:svg="http://www.w3.org/2000/svg"
   xmlns="http://www.w3.org/2000/svg"
   xmlns:sodipodi="http://sodipodi.sourceforge.net/DTD/sodipodi-0.dtd"
   xmlns:inkscape="http://www.inkscape.org/namespaces/inkscape"
   version="1.0"
   x="0px"
   y="0px"
   width="540px"
   height="122.523px"
   viewBox="0 0 540 122.523"
   enable-background="new 0 0 540 122.523"
   xml:space="preserve"
   id="svg32"
   sodipodi:docname="logo-mobile.svg"
   inkscape:version="0.92.2 (5c3e80d, 2017-08-06)"><metadata
     id="metadata38"><rdf:RDF><cc:Work
         rdf:about=""><dc:format>image/svg+xml</dc:format><dc:type
           rdf:resource="http://purl.org/dc/dcmitype/StillImage" /></cc:Work></rdf:RDF></metadata><defs
     id="defs36" /><sodipodi:namedview
     pagecolor="#ffffff"
     bordercolor="#666666"
     borderopacity="1"
     objecttolerance="10"
     gridtolerance="10"
     guidetolerance="10"
     inkscape:pageopacity="0"
     inkscape:pageshadow="2"
     inkscape:window-width="3840"
     inkscape:window-height="2063"
     id="namedview34"
     showgrid="false"
     inkscape:zoom="3.3574478"
     inkscape:cx="134.15332"
     inkscape:cy="57.876597"
     inkscape:window-x="0"
     inkscape:window-y="60"
     inkscape:window-maximized="1"
     inkscape:current-layer="svg32" /><g
     id="Layer_1" /><g
     id="g908"><g
       id="g879"><path
         d="m 313.19,48.227 h -21.257 v 2.255 c 6.649,0 7.718,1.425 7.718,9.857 V 75.54 c 0,8.431 -1.068,9.975 -7.718,9.975 -5.105,-0.712 -8.55,-3.444 -13.3,-8.669 l -5.462,-5.937 c 7.362,-1.308 11.28,-5.938 11.28,-11.164 0,-6.53 -5.58,-11.518 -16.031,-11.518 h -20.9 v 2.255 c 6.649,0 7.718,1.425 7.718,9.857 V 75.54 c 0,8.431 -1.069,9.975 -7.718,9.975 v 2.256 h 23.631 v -2.256 c -6.649,0 -7.718,-1.544 -7.718,-9.975 v -4.274 h 2.018 l 13.182,16.505 h 34.557 c 16.981,0 24.344,-9.024 24.344,-19.832 0,-10.806 -7.362,-19.712 -24.344,-19.712 z M 263.434,67.582 V 51.79 h 4.868 c 5.343,0 7.719,3.681 7.719,7.956 0,4.157 -2.376,7.837 -7.719,7.837 h -4.868 z m 50.113,16.508 h -0.832 c -4.274,0 -4.868,-1.068 -4.868,-6.531 V 51.79 c 0,0 5.225,0 5.7,0 12.35,0 14.605,9.024 14.605,16.031 0,7.243 -2.256,16.269 -14.605,16.269 z"
         id="path3"
         inkscape:connector-curvature="0"
         style="fill:#00749a" /><path
         d="m 181.378,71.978 8.194,-24.227 c 2.376,-7.006 1.307,-9.024 -6.293,-9.024 v -2.376 h 22.325 v 2.376 c -7.481,0 -9.262,1.781 -12.231,10.45 L 179.834,89.79 h -1.543 L 166.177,52.62 153.828,89.79 h -1.544 L 139.103,49.177 c -2.85,-8.669 -4.75,-10.45 -11.638,-10.45 v -2.376 h 26.363 v 2.376 c -7.007,0 -8.908,1.662 -6.413,9.024 l 7.956,24.227 11.994,-35.627 h 2.257 z"
         id="path5"
         inkscape:connector-curvature="0"
         style="fill:#00749a" /><path
         d="m 221.752,89.314 c -13.062,0 -23.75,-9.618 -23.75,-21.376 0,-11.637 10.689,-21.257 23.75,-21.257 13.063,0 23.75,9.62 23.75,21.257 0,11.758 -10.687,21.376 -23.75,21.376 z m 0,-38.949 c -10.924,0 -14.725,9.855 -14.725,17.574 0,7.839 3.801,17.576 14.725,17.576 11.045,0 14.845,-9.737 14.845,-17.576 0,-7.719 -3.8,-17.574 -14.845,-17.574 z"
         id="path7"
         inkscape:connector-curvature="0"
         style="fill:#00749a" /><path
         d="m 366.864,85.396 v 2.375 H 339.67 v -2.375 c 7.957,0 9.382,-2.018 9.382,-13.895 V 52.502 c 0,-11.877 -1.425,-13.776 -9.382,-13.776 V 36.35 h 24.581 c 12.231,0 19.002,6.294 19.002,14.727 0,8.194 -6.771,14.606 -19.002,14.606 h -6.769 V 71.5 c 0,11.878 1.425,13.896 9.382,13.896 z m -2.613,-44.771 h -6.769 v 20.664 h 6.769 c 6.651,0 9.738,-4.631 9.738,-10.212 0,-5.7 -3.087,-10.452 -9.738,-10.452 z"
         id="path9"
         inkscape:connector-curvature="0"
         style="fill:#464342" /><path
         d="m 464.833,76.609 -0.594,2.137 c -1.068,3.919 -2.376,5.344 -10.807,5.344 h -1.663 c -6.174,0 -7.243,-1.425 -7.243,-9.856 v -5.462 c 9.263,0 9.976,0.83 9.976,7.006 h 2.256 V 58.083 h -2.256 c 0,6.175 -0.713,7.006 -9.976,7.006 V 51.79 h 6.53 c 8.433,0 9.738,1.425 10.807,5.344 l 0.595,2.255 h 1.899 l -0.83,-11.162 h -34.914 v 2.255 c 6.649,0 7.719,1.425 7.719,9.857 V 75.54 c 0,7.713 -0.908,9.656 -6.151,9.933 -4.983,-0.761 -8.404,-3.479 -13.085,-8.627 l -5.463,-5.937 c 7.363,-1.308 11.282,-5.938 11.282,-11.164 0,-6.53 -5.581,-11.518 -16.031,-11.518 h -20.9 v 2.255 c 6.649,0 7.718,1.425 7.718,9.857 V 75.54 c 0,8.431 -1.068,9.975 -7.718,9.975 v 2.256 h 23.632 v -2.256 c -6.649,0 -7.719,-1.544 -7.719,-9.975 v -4.274 h 2.019 l 13.181,16.505 h 48.806 l 0.713,-11.161 h -1.783 z M 401.896,67.582 V 51.79 h 4.868 c 5.344,0 7.72,3.681 7.72,7.956 0,4.157 -2.376,7.837 -7.72,7.837 h -4.868 z"
         id="path11"
         inkscape:connector-curvature="0"
         style="fill:#464342" /><path
         d="m 488.939,89.314 c -4.75,0 -8.907,-2.493 -10.688,-4.038 -0.594,0.595 -1.662,2.376 -1.899,4.038 h -2.257 V 72.928 h 2.375 c 0.951,7.837 6.412,12.468 13.419,12.468 3.8,0 6.888,-2.137 6.888,-5.699 0,-3.087 -2.731,-5.463 -7.6,-7.719 l -6.769,-3.206 c -4.751,-2.258 -8.313,-6.177 -8.313,-11.401 0,-5.7 5.344,-10.568 12.707,-10.568 3.919,0 7.243,1.425 9.263,3.087 0.593,-0.475 1.187,-1.782 1.544,-3.208 h 2.256 v 14.014 h -2.494 c -0.832,-5.582 -3.919,-10.213 -10.212,-10.213 -3.325,0 -6.414,1.9 -6.414,4.87 0,3.087 2.494,4.749 8.195,7.362 l 6.53,3.206 c 5.701,2.731 7.956,7.127 7.956,10.689 0,7.48 -6.531,12.704 -14.487,12.704 z"
         id="path13"
         inkscape:connector-curvature="0"
         style="fill:#464342" /><path
         d="m 525.514,89.314 c -4.751,0 -8.908,-2.493 -10.688,-4.038 -0.594,0.595 -1.662,2.376 -1.899,4.038 H 510.67 V 72.928 h 2.375 c 0.95,7.837 6.412,12.468 13.419,12.468 3.8,0 6.888,-2.137 6.888,-5.699 0,-3.087 -2.731,-5.463 -7.601,-7.719 l -6.769,-3.206 c -4.75,-2.258 -8.313,-6.177 -8.313,-11.401 0,-5.7 5.344,-10.568 12.707,-10.568 3.919,0 7.243,1.425 9.263,3.087 0.593,-0.475 1.187,-1.782 1.542,-3.208 h 2.257 v 14.014 h -2.493 c -0.832,-5.582 -3.919,-10.213 -10.212,-10.213 -3.325,0 -6.414,1.9 -6.414,4.87 0,3.087 2.494,4.749 8.195,7.362 l 6.53,3.206 c 5.701,2.731 7.956,7.127 7.956,10.689 0,7.48 -6.531,12.704 -14.486,12.704 z"
         id="path15"
         inkscape:connector-curvature="0"
         style="fill:#464342" /></g><g
       id="g890"><circle
         style="fill:#ffffff;fill-opacity:1"
         id="path881"
         cx="61.28167"
         cy="61.092411"
         r="60.388134" /><g
         id="g27"><path
           d="m 8.708,61.26 c 0,20.802 12.089,38.779 29.619,47.298 L 13.258,39.872 c -2.916,6.536 -4.55,13.769 -4.55,21.388 z"
           id="path17"
           inkscape:connector-curvature="0"
           style="fill:#464342" /><path
           d="m 96.74,58.608 c 0,-6.495 -2.333,-10.993 -4.334,-14.494 -2.664,-4.329 -5.161,-7.995 -5.161,-12.324 0,-4.831 3.664,-9.328 8.825,-9.328 0.233,0 0.454,0.029 0.681,0.042 C 87.401,13.938 74.944,8.708 61.262,8.708 c -18.36,0 -34.513,9.42 -43.91,23.688 1.233,0.037 2.395,0.063 3.382,0.063 5.497,0 14.006,-0.667 14.006,-0.667 2.833,-0.167 3.167,3.994 0.337,4.329 0,0 -2.847,0.335 -6.015,0.501 L 48.2,93.547 59.701,59.054 51.513,36.62 c -2.83,-0.166 -5.511,-0.501 -5.511,-0.501 -2.832,-0.166 -2.5,-4.496 0.332,-4.329 0,0 8.679,0.667 13.843,0.667 5.496,0 14.006,-0.667 14.006,-0.667 2.835,-0.167 3.168,3.994 0.337,4.329 0,0 -2.853,0.335 -6.015,0.501 l 18.992,56.494 5.242,-17.517 c 2.272,-7.269 4.001,-12.49 4.001,-16.989 z"
           id="path19"
           inkscape:connector-curvature="0"
           style="fill:#464342" /><path
           d="m 62.184,65.857 -15.768,45.819 c 4.708,1.384 9.687,2.141 14.846,2.141 6.12,0 11.989,-1.058 17.452,-2.979 -0.141,-0.225 -0.269,-0.464 -0.374,-0.724 z"
           id="path21"
           inkscape:connector-curvature="0"
           style="fill:#464342" /><path
           d="m 107.376,36.046 c 0.226,1.674 0.354,3.471 0.354,5.404 0,5.333 -0.996,11.328 -3.996,18.824 l -16.053,46.413 c 15.624,-9.111 26.133,-26.038 26.133,-45.426 0.001,-9.137 -2.333,-17.729 -6.438,-25.215 z"
           id="path23"
           inkscape:connector-curvature="0"
           style="fill:#464342" /><path
           d="M 61.262,0 C 27.483,0 0,27.481 0,61.26 c 0,33.783 27.483,61.263 61.262,61.263 33.778,0 61.265,-27.48 61.265,-61.263 C 122.526,27.481 95.04,0 61.262,0 Z m 0,119.715 c -32.23,0 -58.453,-26.223 -58.453,-58.455 0,-32.23 26.222,-58.451 58.453,-58.451 32.229,0 58.45,26.221 58.45,58.451 0,32.232 -26.221,58.455 -58.45,58.455 z"
           id="path25"
           inkscape:connector-curvature="0"
           style="fill:#464342" /></g></g></g></svg>