<?xml version="1.0" encoding="iso-8859-1"?>
<!-- Generator: Adobe Illustrator 18.0.0, SVG Export Plug-In . SVG Version: 6.00 Build 0)  -->
<!DOCTYPE svg PUBLIC "-//W3C//DTD SVG 1.1//EN" "http://www.w3.org/Graphics/SVG/1.1/DTD/svg11.dtd">
<svg version="1.1" id="Capa_1" xmlns="http://www.w3.org/2000/svg" xmlns:xlink="http://www.w3.org/1999/xlink" x="0px" y="0px"
	 viewBox="0 0 325.001 325.001" style="enable-background:new 0 0 325.001 325.001;" xml:space="preserve">
<path d="M323.243,71.816l-49.692-49.692c-1.125-1.126-2.651-1.758-4.242-1.758s-3.117,0.632-4.242,1.758l-15.47,15.47
	C222.109,13.279,187.108,0,150.234,0c-0.549,0-1.102,0.003-1.65,0.009C109.08,0.433,71.936,16.054,43.995,43.995
	C16.054,71.935,0.433,109.078,0.009,148.583c-0.401,37.479,12.909,73.116,37.584,101.014l-15.47,15.47
	c-2.344,2.343-2.344,6.142-0.001,8.484l49.691,49.692c1.126,1.126,2.651,1.758,4.243,1.758c1.591,0,3.117-0.632,4.242-1.758
	l29.378-29.378l-21.163-21.106c-3.128-3.119-3.135-8.185-0.015-11.314c3.12-3.128,8.186-3.135,11.313-0.015l21.178,21.121
	l23.425-23.425l-20.803-20.748c-3.128-3.12-3.135-8.186-0.015-11.313c3.12-3.128,8.186-3.135,11.314-0.015l20.817,20.763
	l22.955-22.955l-21.036-20.981c-3.128-3.12-3.135-8.186-0.015-11.314c3.12-3.128,8.186-3.135,11.313-0.015l21.052,20.996
	l23.561-23.563l-20.675-20.622c-3.128-3.12-3.135-8.186-0.015-11.314c3.119-3.128,8.185-3.135,11.314-0.015l20.689,20.637
	l22.852-22.853l-20.614-20.563c-3.129-3.12-3.135-8.185-0.015-11.313c3.12-3.128,8.186-3.135,11.313-0.015l20.629,20.577
	l23.666-23.665l-20.55-20.498c-3.129-3.12-3.135-8.186-0.015-11.313c3.12-3.128,8.186-3.135,11.314-0.015l20.564,20.513
	L323.243,80.3c1.126-1.125,1.758-2.651,1.758-4.242C325.001,74.467,324.369,72.941,323.243,71.816z M85.876,202.908
	c-13.448-15.314-20.702-34.879-20.48-55.453c0.23-21.684,8.743-42.077,23.968-57.415c15.229-15.337,35.471-23.912,56.998-24.145
	c0.3-0.005,0.6-0.006,0.899-0.006c20.095,0,39.168,7.289,54.148,20.638L85.876,202.908z"/>
<g>
</g>
<g>
</g>
<g>
</g>
<g>
</g>
<g>
</g>
<g>
</g>
<g>
</g>
<g>
</g>
<g>
</g>
<g>
</g>
<g>
</g>
<g>
</g>
<g>
</g>
<g>
</g>
<g>
</g>
</svg>
