<?xml version="1.0" encoding="iso-8859-1"?>
<!-- Generator: Adobe Illustrator 18.0.0, SVG Export Plug-In . SVG Version: 6.00 Build 0)  -->
<!DOCTYPE svg PUBLIC "-//W3C//DTD SVG 1.1//EN" "http://www.w3.org/Graphics/SVG/1.1/DTD/svg11.dtd">
<svg version="1.1" id="Capa_1" xmlns="http://www.w3.org/2000/svg" xmlns:xlink="http://www.w3.org/1999/xlink" x="0px" y="0px"
	 viewBox="0 0 325 325" style="enable-background:new 0 0 325 325;" xml:space="preserve">
<g>
	<path d="M5.622,225.788c-1.626,0.926-2.727,2.559-2.976,4.413c-0.25,1.854,0.381,3.719,1.704,5.042l16.129,16.129l26.185-26.278
		c3.117-3.131,8.183-3.14,11.314-0.021c3.13,3.118,3.139,8.184,0.02,11.314l-26.205,26.299l10.889,10.889l26.142-26.239
		c3.116-3.129,8.182-3.14,11.313-0.021c3.13,3.118,3.14,8.184,0.021,11.313l-26.162,26.261l10.697,10.697l26.159-26.16
		c3.125-3.125,8.19-3.124,11.313-0.001c3.125,3.124,3.125,8.189,0.001,11.314l-26.16,26.161l16.343,16.343
		C93.481,324.375,95.01,325,96.59,325c0.271,0,0.544-0.019,0.816-0.056c1.859-0.256,3.493-1.367,4.413-3.003l35.197-62.576
		l-68.573-69.372L5.622,225.788z"/>
	<path d="M80.205,179.131l67.119,67.901c7.366-7.652,15.303-16.037,23.602-24.968l-66.291-67.063
		C95.839,163.542,87.623,171.668,80.205,179.131z"/>
	<path d="M318.198,4.114C315.467,1.384,311.767,0,307.2,0c-9.672,0-24.253,6.553-44.578,20.032
		c-17.004,11.277-37.883,27.309-62.057,47.65c-28.772,24.21-58.499,51.426-84.409,76.214l65.627,66.393
		c27.498-30.041,57.72-64.764,83.51-97.613C328.235,32.505,326.629,12.546,318.198,4.114z"/>
</g>
<g>
</g>
<g>
</g>
<g>
</g>
<g>
</g>
<g>
</g>
<g>
</g>
<g>
</g>
<g>
</g>
<g>
</g>
<g>
</g>
<g>
</g>
<g>
</g>
<g>
</g>
<g>
</g>
<g>
</g>
</svg>
