<?xml version="1.0" encoding="iso-8859-1"?>
<!-- Generator: Adobe Illustrator 18.0.0, SVG Export Plug-In . SVG Version: 6.00 Build 0)  -->
<!DOCTYPE svg PUBLIC "-//W3C//DTD SVG 1.1//EN" "http://www.w3.org/Graphics/SVG/1.1/DTD/svg11.dtd">
<svg version="1.1" id="Capa_1" xmlns="http://www.w3.org/2000/svg" xmlns:xlink="http://www.w3.org/1999/xlink" x="0px" y="0px"
	 viewBox="0 0 325 325" style="enable-background:new 0 0 325 325;" xml:space="preserve">
<path d="M312.651,41H12.348C5.539,41,0,46.425,0,53.092V271.91C0,278.576,5.539,284,12.348,284h300.304
	c6.809,0,12.349-5.424,12.349-12.09V53.092C325,46.425,319.46,41,312.651,41z M257.673,87.906c11.485,0,20.796,9.313,20.796,20.797
	c0,11.486-9.311,20.797-20.796,20.797c-11.484,0-20.795-9.311-20.795-20.797C236.878,97.219,246.189,87.906,257.673,87.906z
	 M194.224,87.906c11.486,0,20.797,9.313,20.797,20.797c0,11.486-9.31,20.797-20.797,20.797c-11.485,0-20.796-9.311-20.796-20.797
	C173.428,97.219,182.738,87.906,194.224,87.906z M130.776,87.906c11.484,0,20.795,9.313,20.795,20.797
	c0,11.486-9.311,20.797-20.795,20.797c-11.485,0-20.797-9.311-20.797-20.797C109.979,97.219,119.291,87.906,130.776,87.906z
	 M67.326,87.906c11.485,0,20.797,9.313,20.797,20.797c0,11.486-9.312,20.797-20.797,20.797c-11.485,0-20.796-9.311-20.796-20.797
	C46.53,97.219,55.841,87.906,67.326,87.906z M67.326,237.09c-11.485,0-20.796-9.311-20.796-20.795
	c0-11.484,9.311-20.795,20.796-20.795c11.485,0,20.797,9.311,20.797,20.795C88.123,227.779,78.812,237.09,67.326,237.09z
	 M130.776,237.09c-11.485,0-20.797-9.311-20.797-20.795c0-11.484,9.312-20.795,20.797-20.795c11.484,0,20.795,9.311,20.795,20.795
	C151.571,227.779,142.261,237.09,130.776,237.09z M194.224,237.09c-11.485,0-20.796-9.311-20.796-20.795
	c0-11.484,9.311-20.795,20.796-20.795c11.486,0,20.797,9.311,20.797,20.795C215.02,227.779,205.71,237.09,194.224,237.09z
	 M257.673,237.09c-11.484,0-20.795-9.311-20.795-20.795c0-11.484,9.311-20.795,20.795-20.795c11.485,0,20.796,9.311,20.796,20.795
	C278.469,227.779,269.158,237.09,257.673,237.09z M285.675,170.5H39.325c-4.418,0-8-3.582-8-8s3.582-8,8-8h246.35
	c4.418,0,8,3.582,8,8S290.093,170.5,285.675,170.5z"/>
<g>
</g>
<g>
</g>
<g>
</g>
<g>
</g>
<g>
</g>
<g>
</g>
<g>
</g>
<g>
</g>
<g>
</g>
<g>
</g>
<g>
</g>
<g>
</g>
<g>
</g>
<g>
</g>
<g>
</g>
</svg>
