<?xml version="1.0" encoding="iso-8859-1"?>
<!-- Generator: Adobe Illustrator 18.0.0, SVG Export Plug-In . SVG Version: 6.00 Build 0)  -->
<!DOCTYPE svg PUBLIC "-//W3C//DTD SVG 1.1//EN" "http://www.w3.org/Graphics/SVG/1.1/DTD/svg11.dtd">
<svg version="1.1" id="Capa_1" xmlns="http://www.w3.org/2000/svg" xmlns:xlink="http://www.w3.org/1999/xlink" x="0px" y="0px"
	 viewBox="0 0 325.027 325.027" style="enable-background:new 0 0 325.027 325.027;" xml:space="preserve">
<g>
	<path d="M25.295,234.166c-2.343,2.343-2.343,6.142,0.001,8.484l2.583,2.584L1.497,301.02c-1.837,3.945-3.172,12.396,3.474,19.04
		c3.239,3.24,7.343,4.953,11.865,4.953c3.806,0,6.644-1.231,7.209-1.494l55.753-26.369l2.585,2.585c2.342,2.342,6.142,2.342,8.485,0
		L300.877,89.726l-65.571-65.571L25.295,234.166z"/>
	<path d="M324.457,47.783c-1.609-8.103-6.564-16.215-15.147-24.797l-7.265-7.267C291.475,5.151,281.532,0.013,271.647,0.013
		c-8.097,0-15.742,3.541-22.726,10.525l-2.302,2.302l65.571,65.571l2.303-2.303C323.125,67.478,326.476,57.948,324.457,47.783z"/>
</g>
<g>
</g>
<g>
</g>
<g>
</g>
<g>
</g>
<g>
</g>
<g>
</g>
<g>
</g>
<g>
</g>
<g>
</g>
<g>
</g>
<g>
</g>
<g>
</g>
<g>
</g>
<g>
</g>
<g>
</g>
</svg>
