<?xml version="1.0" encoding="iso-8859-1"?>
<!-- Generator: Adobe Illustrator 18.0.0, SVG Export Plug-In . SVG Version: 6.00 Build 0)  -->
<!DOCTYPE svg PUBLIC "-//W3C//DTD SVG 1.1//EN" "http://www.w3.org/Graphics/SVG/1.1/DTD/svg11.dtd">
<svg version="1.1" id="Capa_1" xmlns="http://www.w3.org/2000/svg" xmlns:xlink="http://www.w3.org/1999/xlink" x="0px" y="0px"
	 viewBox="0 0 325 325" style="enable-background:new 0 0 325 325;" xml:space="preserve">
<g>
	<path d="M287.281,120.346c-4.653-6.497-9.287-12.442-13.597-17.688H51.317c-4.311,5.246-8.943,11.19-13.598,17.688
		c-12.726,17.765-22.084,34.636-28.034,50.486h305.629C309.364,154.981,300.006,138.11,287.281,120.346z"/>
	<path d="M65.319,86.628c-0.009,0.01-0.019,0.021-0.028,0.03h194.42c-0.009-0.01-0.02-0.021-0.028-0.03
		c11.273-4.54,19.221-15.304,19.221-27.831v-28.66C278.903,13.519,264.925,0,247.743,0H77.259C60.076,0,46.097,13.519,46.097,30.137
		v28.66C46.097,71.324,54.045,82.088,65.319,86.628z"/>
	<path d="M320.245,186.832H4.755c-1.875,7.895-2.818,15.5-2.818,22.797c0,62.339,73.945,112.271,77.094,114.366
		c0.984,0.655,2.142,1.005,3.324,1.005h160.293c1.183,0,2.34-0.35,3.324-1.005c3.148-2.096,77.092-52.027,77.092-114.366
		C323.064,202.332,322.12,194.727,320.245,186.832z"/>
</g>
<g>
</g>
<g>
</g>
<g>
</g>
<g>
</g>
<g>
</g>
<g>
</g>
<g>
</g>
<g>
</g>
<g>
</g>
<g>
</g>
<g>
</g>
<g>
</g>
<g>
</g>
<g>
</g>
<g>
</g>
</svg>
