<?xml version="1.0" encoding="iso-8859-1"?>
<!-- Generator: Adobe Illustrator 18.0.0, SVG Export Plug-In . SVG Version: 6.00 Build 0)  -->
<!DOCTYPE svg PUBLIC "-//W3C//DTD SVG 1.1//EN" "http://www.w3.org/Graphics/SVG/1.1/DTD/svg11.dtd">
<svg version="1.1" id="Capa_1" xmlns="http://www.w3.org/2000/svg" xmlns:xlink="http://www.w3.org/1999/xlink" x="0px" y="0px"
	 viewBox="0 0 325.015 325.015" style="enable-background:new 0 0 325.015 325.015;" xml:space="preserve">
<g>
	<path d="M313.248,11.759c-7.798-7.799-18.757-11.752-32.571-11.752c-37.556,0-91.823,29.309-141.624,76.49
		c-0.713,0.676-1.249,1.516-1.562,2.447l-14.117,42.075l-18.867-3.02c-2.139-0.342-4.294,0.493-5.643,2.188
		c-31.216,39.217-40.036,87.853-42.38,117.223l113.373-113.373c4.155-4.159,9.682-6.449,15.561-6.449s11.405,2.29,15.554,6.441
		c4.157,4.155,6.446,9.681,6.446,15.559c0,5.877-2.289,11.402-6.444,15.556L90.338,265.781c9.783-1.658,21.589-4.105,34.6-7.714
		c32.645-9.054,79.152-27.441,115.334-63.623c6.458-6.456,12.774-13.184,18.77-19.994c1.473-1.673,1.897-4.023,1.103-6.105
		l-6.784-17.765l39.994-22.703c0.87-0.494,1.604-1.197,2.132-2.047C327.156,74.952,333.797,32.308,313.248,11.759z"/>
	<path d="M189.66,135.347c-1.171-1.172-2.707-1.758-4.242-1.758c-1.535,0-3.071,0.586-4.242,1.758L55.738,260.785l-53.98,53.98
		c-2.344,2.343-2.344,6.142,0,8.484c1.171,1.172,2.707,1.758,4.242,1.758c1.535,0,3.071-0.586,4.242-1.758l54.224-54.224
		L189.66,143.832C192.004,141.489,192.004,137.69,189.66,135.347z"/>
</g>
<g>
</g>
<g>
</g>
<g>
</g>
<g>
</g>
<g>
</g>
<g>
</g>
<g>
</g>
<g>
</g>
<g>
</g>
<g>
</g>
<g>
</g>
<g>
</g>
<g>
</g>
<g>
</g>
<g>
</g>
</svg>
