<?xml version="1.0" encoding="iso-8859-1"?>
<!-- Generator: Adobe Illustrator 18.0.0, SVG Export Plug-In . SVG Version: 6.00 Build 0)  -->
<!DOCTYPE svg PUBLIC "-//W3C//DTD SVG 1.1//EN" "http://www.w3.org/Graphics/SVG/1.1/DTD/svg11.dtd">
<svg version="1.1" id="Capa_1" xmlns="http://www.w3.org/2000/svg" xmlns:xlink="http://www.w3.org/1999/xlink" x="0px" y="0px"
	 viewBox="0 0 325 325" style="enable-background:new 0 0 325 325;" xml:space="preserve">
<g>
	<g>
		<g>
			<path d="M236.729,228.471c-4.11,9.467-13.605,16.109-24.637,16.109h-99.185c-11.031,0-20.526-6.643-24.638-16.109
				c-18.551-0.242-35.433-1.086-49.768-4.007v59.485c0,12.873,10.472,23.346,23.343,23.346h201.309
				c12.873,0,23.345-10.473,23.345-23.346v-59.485C272.163,227.385,255.281,228.229,236.729,228.471z"/>
			<path d="M38.503,175.101c0.304,0.138,0.612,0.271,0.924,0.405c8.874,3.821,25.928,5.133,48.945,5.513
				c4.166-9.343,13.597-15.877,24.536-15.877h99.185c10.939,0,20.369,6.534,24.535,15.877c23.018-0.38,40.071-1.691,48.945-5.513
				c0.313-0.135,0.621-0.268,0.926-0.406V41.051c0-12.873-10.472-23.346-23.345-23.346h-33.341v45.682
				c0,16.74-10.725,18.198-16.487,18.981c-5.692,0.773-7.61,1.034-7.61,10.409v19.254c0,6.105-2.015,11.829-5.673,16.117
				c-3.01,3.528-8.545,7.733-17.821,7.733c-9.277,0-14.813-4.205-17.822-7.733c-3.656-4.288-5.67-10.012-5.67-16.117V81.12
				l0.084-13.988c0-1.192-0.249-11.962-8.903-11.962c-8.656,0-8.906,10.77-8.906,11.998v17.106c0,11.853-7.869,23.852-22.908,23.852
				S95.188,96.127,95.188,84.274V17.705H61.846c-12.871,0-23.343,10.473-23.343,23.346V175.101z"/>
		</g>
	</g>
	<path d="M317.098,78.861c4.365,0,7.902,3.539,7.902,7.902v70.201c0,25.482-9.248,40.889-29.105,48.491
		c-16.705,6.395-40.843,7.227-72.795,7.302v5.216c0,5.956-4.939,10.802-11.007,10.802h-99.185c-6.069,0-11.008-4.846-11.008-10.802
		v-5.216c-31.951-0.074-56.089-0.907-72.794-7.302C9.249,197.854,0,182.446,0,156.965V86.764c0-4.363,3.538-7.902,7.903-7.902
		h32.262c4.364,0,7.902,3.539,7.902,7.902c0,4.365-3.538,7.903-7.902,7.903H15.806v62.298c0,35.072,17.621,39.753,86.095,39.984
		v-5.201c0-5.955,4.938-10.801,11.008-10.801h99.185c6.068,0,11.007,4.846,11.007,10.801v5.201
		c68.474-0.231,86.095-4.912,86.095-39.984V94.667h-23.493c-4.365,0-7.902-3.538-7.902-7.903c0-4.363,3.537-7.902,7.902-7.902
		H317.098"/>
</g>
<g>
</g>
<g>
</g>
<g>
</g>
<g>
</g>
<g>
</g>
<g>
</g>
<g>
</g>
<g>
</g>
<g>
</g>
<g>
</g>
<g>
</g>
<g>
</g>
<g>
</g>
<g>
</g>
<g>
</g>
</svg>
