<?xml version="1.0" encoding="iso-8859-1"?>
<!-- Generator: Adobe Illustrator 18.0.0, SVG Export Plug-In . SVG Version: 6.00 Build 0)  -->
<!DOCTYPE svg PUBLIC "-//W3C//DTD SVG 1.1//EN" "http://www.w3.org/Graphics/SVG/1.1/DTD/svg11.dtd">
<svg version="1.1" id="Capa_1" xmlns="http://www.w3.org/2000/svg" xmlns:xlink="http://www.w3.org/1999/xlink" x="0px" y="0px"
	 viewBox="0 0 325 325" style="enable-background:new 0 0 325 325;" xml:space="preserve">
<path d="M323.241,83.284L241.717,1.758C240.591,0.632,239.065,0,237.474,0c-1.591,0-3.117,0.632-4.242,1.758L1.759,233.23
	c-2.344,2.343-2.344,6.142,0,8.484l81.524,81.527c1.126,1.126,2.651,1.758,4.243,1.758c1.591,0,3.117-0.632,4.242-1.758
	l18.811-18.811l-21.893-21.8c-3.131-3.118-3.142-8.183-0.024-11.313c3.118-3.133,8.184-3.142,11.313-0.024l21.917,21.824
	l18.678-18.678l-21.769-21.68c-3.13-3.118-3.141-8.184-0.023-11.314c3.118-3.13,8.183-3.142,11.314-0.023l21.792,21.702
	l18.679-18.678l-21.645-21.555c-3.131-3.118-3.142-8.183-0.024-11.313c3.118-3.132,8.183-3.143,11.313-0.024l21.67,21.578
	l18.678-18.678l-21.52-21.432c-3.131-3.118-3.142-8.184-0.024-11.314c3.118-3.131,8.183-3.141,11.314-0.023l21.545,21.456
	l18.679-18.679l-21.396-21.308c-3.131-3.118-3.142-8.184-0.024-11.314c3.119-3.131,8.183-3.141,11.314-0.023l21.42,21.331
	l18.678-18.677l-21.272-21.185c-3.131-3.118-3.142-8.184-0.024-11.314c3.119-3.13,8.184-3.142,11.314-0.023l21.296,21.208
	l51.389-51.389C325.585,89.426,325.585,85.627,323.241,83.284z M258.212,85.115c-5.018,5.102-13.188,5.134-18.246,0.073
	c-5.063-5.061-5.1-13.298-0.082-18.398c5.018-5.102,13.182-5.136,18.244-0.073C263.189,71.778,263.228,80.015,258.212,85.115z"/>
<g>
</g>
<g>
</g>
<g>
</g>
<g>
</g>
<g>
</g>
<g>
</g>
<g>
</g>
<g>
</g>
<g>
</g>
<g>
</g>
<g>
</g>
<g>
</g>
<g>
</g>
<g>
</g>
<g>
</g>
</svg>
