<?xml version="1.0" encoding="iso-8859-1"?>
<!-- Generator: Adobe Illustrator 18.0.0, SVG Export Plug-In . SVG Version: 6.00 Build 0)  -->
<!DOCTYPE svg PUBLIC "-//W3C//DTD SVG 1.1//EN" "http://www.w3.org/Graphics/SVG/1.1/DTD/svg11.dtd">
<svg version="1.1" id="Capa_1" xmlns="http://www.w3.org/2000/svg" xmlns:xlink="http://www.w3.org/1999/xlink" x="0px" y="0px"
	 viewBox="0 0 325 325" style="enable-background:new 0 0 325 325;" xml:space="preserve">
<path d="M298.536,43H281.5V17.162C281.5,7.378,273.882,0,263.778,0H26.464C16.391,0,8.5,7.538,8.5,17.162V79.91
	C8.5,89.885,16.559,98,26.464,98h237.314c9.772,0,17.722-8.115,17.722-18.09V59h17.036c0.93,0,1.536,0.079,1.901,0.153
	c0.033,0.239,0.063,0.58,0.063,1.044v66.388c0,2.989-1.189,5.415-1.964,5.415H160.431c-12.503,0-21.931,7.698-21.931,17.907V160
	h-4.898c-2.557,0-4.833,1.62-5.67,4.036l-15.103,43.601c-0.219,0.632-0.33,1.296-0.33,1.964V319c0,3.314,2.687,6,6,6h59
	c3.314,0,6-2.686,6-6V209.601c0-0.646-0.105-1.287-0.309-1.899l-14.548-43.601c-0.817-2.449-3.109-4.101-5.691-4.101h-8.46
	l-0.013-10.057c0.282-0.535,2.541-1.943,5.951-1.943h138.105c10.409,0,17.964-9.006,17.964-21.415V60.197
	C316.5,49.429,309.784,43,298.536,43z"/>
<g>
</g>
<g>
</g>
<g>
</g>
<g>
</g>
<g>
</g>
<g>
</g>
<g>
</g>
<g>
</g>
<g>
</g>
<g>
</g>
<g>
</g>
<g>
</g>
<g>
</g>
<g>
</g>
<g>
</g>
</svg>
