<?xml version="1.0" encoding="iso-8859-1"?>
<!-- Generator: Adobe Illustrator 18.0.0, SVG Export Plug-In . SVG Version: 6.00 Build 0)  -->
<!DOCTYPE svg PUBLIC "-//W3C//DTD SVG 1.1//EN" "http://www.w3.org/Graphics/SVG/1.1/DTD/svg11.dtd">
<svg version="1.1" id="Capa_1" xmlns="http://www.w3.org/2000/svg" xmlns:xlink="http://www.w3.org/1999/xlink" x="0px" y="0px"
	 viewBox="0 0 325 325" style="enable-background:new 0 0 325 325;" xml:space="preserve">
<g>
	<path d="M232.769,291.854h-53.141L76.458,183.342c2.843-3.461,4.553-7.885,4.553-12.701c0-5.568-2.286-10.609-5.964-14.245
		l72.84-81.672l6.553,6.553l56.785-56.783L190.171,3.44C187.954,1.222,184.987,0,181.818,0c-3.265,0-6.348,1.284-8.682,3.617
		L133.565,43.19c-4.742,4.744-4.822,12.385-0.177,17.034l3.166,3.166l-77.905,87.353c-9.961,1.155-17.722,9.632-17.722,19.897
		c0,11.051,8.99,20.042,20.041,20.042c0.126,0,0.248-0.017,0.374-0.019l96.208,101.19h-51.994c-3.313,0-6,2.686-6,6V319
		c0,3.314,2.687,6,6,6h127.213c3.313,0,6-2.686,6-6v-21.146C238.769,294.541,236.082,291.854,232.769,291.854z"/>
	<path d="M283.969,61.915c-0.367-1.948-1.674-3.59-3.49-4.385l-55.413-24.249l-61.838,61.836l24.251,55.414
		c0.795,1.816,2.437,3.123,4.385,3.491c0.37,0.069,0.742,0.104,1.112,0.104c1.576,0,3.107-0.622,4.242-1.758l85.098-85.099
		C283.718,65.868,284.337,63.863,283.969,61.915z"/>
	<path d="M228.694,144.622c3.492,1.39,7.264,2.081,11.117,2.081c8.993,0,18.427-3.748,25.76-11.08
		c10.475-10.474,13.629-25.232,8.998-36.874L228.694,144.622z"/>
</g>
<g>
</g>
<g>
</g>
<g>
</g>
<g>
</g>
<g>
</g>
<g>
</g>
<g>
</g>
<g>
</g>
<g>
</g>
<g>
</g>
<g>
</g>
<g>
</g>
<g>
</g>
<g>
</g>
<g>
</g>
</svg>
