<?xml version="1.0" encoding="iso-8859-1"?>
<!-- Generator: Adobe Illustrator 18.0.0, SVG Export Plug-In . SVG Version: 6.00 Build 0)  -->
<!DOCTYPE svg PUBLIC "-//W3C//DTD SVG 1.1//EN" "http://www.w3.org/Graphics/SVG/1.1/DTD/svg11.dtd">
<svg version="1.1" id="Capa_1" xmlns="http://www.w3.org/2000/svg" xmlns:xlink="http://www.w3.org/1999/xlink" x="0px" y="0px"
	 viewBox="0 0 325.041 325.041" style="enable-background:new 0 0 325.041 325.041;" xml:space="preserve">
<g>
	<path d="M322.527,12.199c-1.143-1.156-3.198-2.535-6.502-2.535c-4.23,0-17.1,0-96.105,67.513
		c-25.503,21.792-53.706,47.164-79.851,71.705l47.336,47.91c26.166-28.554,53.185-59.443,76.032-87.094
		c20.302-24.57,35.903-44.828,46.372-60.211C324.732,27.557,328.06,17.799,322.527,12.199z"/>
	<path d="M103.356,184.16l49.187,49.783c7.735-8.025,15.789-16.547,24-25.381l-48.105-48.688
		C119.682,168.207,111.26,176.361,103.356,184.16z"/>
	<path d="M92.004,195.48c-49.301,5.987-55.696,37.56-60.849,62.994c-4.418,21.811-7.564,33.278-25.637,34.735
		c-2.762,0.223-5.011,2.342-5.444,5.078c-0.433,2.736,1.064,5.486,3.623,6.549c1.02,0.426,25.324,10.541,53.75,10.541
		c0.004,0,0.006,0,0.01,0c31.21,0,70.925-12.289,83.776-69.823c0.048-0.049,0.097-0.099,0.145-0.148l-49.352-49.95
		C92.019,195.464,92.012,195.472,92.004,195.48z"/>
</g>
<g>
</g>
<g>
</g>
<g>
</g>
<g>
</g>
<g>
</g>
<g>
</g>
<g>
</g>
<g>
</g>
<g>
</g>
<g>
</g>
<g>
</g>
<g>
</g>
<g>
</g>
<g>
</g>
<g>
</g>
</svg>
