<?xml version="1.0" encoding="iso-8859-1"?>
<!-- Generator: Adobe Illustrator 18.0.0, SVG Export Plug-In . SVG Version: 6.00 Build 0)  -->
<!DOCTYPE svg PUBLIC "-//W3C//DTD SVG 1.1//EN" "http://www.w3.org/Graphics/SVG/1.1/DTD/svg11.dtd">
<svg version="1.1" id="Capa_1" xmlns="http://www.w3.org/2000/svg" xmlns:xlink="http://www.w3.org/1999/xlink" x="0px" y="0px"
	 viewBox="0 0 324.999 324.999" style="enable-background:new 0 0 324.999 324.999;" xml:space="preserve">
<g>
	<path d="M44.658,279.315c-9.084,0-18.815,16.724-18.815,28.494c0,4.925,1.581,9.12,4.572,12.134
		c3.329,3.354,8.122,5.056,14.244,5.056c6.121,0,10.913-1.701,14.241-5.056c2.99-3.014,4.57-7.209,4.57-12.133
		C63.471,296.04,53.741,279.315,44.658,279.315z"/>
	<path d="M57.42,194.527c-0.692,0.692-1.205,1.544-1.492,2.48L38.923,252.38c-0.652,2.124-0.078,4.434,1.493,6.005
		c1.142,1.142,2.675,1.757,4.243,1.757c0.588,0,1.182-0.087,1.761-0.265l55.369-17.01c0.937-0.287,1.788-0.8,2.48-1.493
		l53.245-53.244H63.817L57.42,194.527z"/>
	<polygon points="79.817,172.13 173.515,172.13 189.567,156.077 142.719,109.228 	"/>
	<path d="M289.046,13.401l-3.294-3.293C279.233,3.59,270.566,0,261.346,0c-9.221,0-17.888,3.59-24.407,10.108l-59.517,59.518
		l-3.681-3.68c-3.234-3.234-7.536-5.017-12.112-5.018c-0.001,0-0.002,0-0.003,0c-4.578,0-8.881,1.783-12.119,5.022l-1.283,1.286
		c-6.681,6.68-6.681,17.551-0.001,24.23l59.468,59.467c3.235,3.235,7.537,5.018,12.115,5.017c4.578,0,8.881-1.782,12.115-5.018
		l1.287-1.286c6.679-6.685,6.678-17.556-0.001-24.233l-3.677-3.678l59.518-59.517c0.042-0.042,0.082-0.084,0.122-0.126
		c6.44-6.503,9.985-15.12,9.985-24.283C299.155,28.587,295.565,19.919,289.046,13.401z"/>
</g>
<g>
</g>
<g>
</g>
<g>
</g>
<g>
</g>
<g>
</g>
<g>
</g>
<g>
</g>
<g>
</g>
<g>
</g>
<g>
</g>
<g>
</g>
<g>
</g>
<g>
</g>
<g>
</g>
<g>
</g>
</svg>
