<?xml version="1.0" encoding="iso-8859-1"?>
<!-- Generator: Adobe Illustrator 18.0.0, SVG Export Plug-In . SVG Version: 6.00 Build 0)  -->
<!DOCTYPE svg PUBLIC "-//W3C//DTD SVG 1.1//EN" "http://www.w3.org/Graphics/SVG/1.1/DTD/svg11.dtd">
<svg version="1.1" id="Capa_1" xmlns="http://www.w3.org/2000/svg" xmlns:xlink="http://www.w3.org/1999/xlink" x="0px" y="0px"
	 viewBox="0 0 326.04 326.04" style="enable-background:new 0 0 326.04 326.04;" xml:space="preserve">
<g>
	<path d="M72.566,157.695c-6.075,5.703-12.282,16.344-12.453,27.262c-0.113,7.156,2.418,13.529,7.319,18.429l2.396,2.394
		c-8.871,7.101-19.313,10.706-31.134,10.707c-8.778,0.001-15.021-2.107-15.063-2.12c-1.672-0.585-3.516-0.405-5.043,0.497
		c-1.524,0.902-2.572,2.433-2.863,4.181L0,313.673l47.346-47.329c0.506-0.506,1.067-0.92,1.658-1.262
		c-1.319-4.918-0.132-10.295,3.634-14.059c5.693-5.69,15.088-5.528,20.984,0.364c5.896,5.895,6.058,15.285,0.364,20.978
		c-3.765,3.763-9.144,4.95-14.062,3.632c-0.343,0.594-0.759,1.155-1.267,1.663l-47.331,47.313l94.606-15.721
		c1.748-0.29,3.278-1.339,4.18-2.863c0.902-1.524,1.085-3.37,0.499-5.042c-0.093-0.264-8.408-24.855,8.596-46.207l2.439,2.438
		c4.79,4.789,11.005,7.32,17.972,7.32c11.075,0,21.907-6.254,27.729-12.451c8.361-8.901,16.73-18.065,24.999-27.354l-92.411-92.373
		C90.564,141.049,81.378,149.424,72.566,157.695z"/>
	<path d="M323.697,121.532l-28.594-28.588c9.819-15.565,17.195-29.219,22.006-40.764c9.028-21.67,9.262-36.357,0.716-44.899
		c-4.125-4.123-9.854-6.214-17.026-6.214c-21.047,0-57.172,18.664-107.374,55.475c-25.147,18.439-53.775,41.545-81.443,65.596
		l90.963,90.925c29.121-33.443,56.361-67.781,76.751-96.987c2.241-3.21,4.398-6.355,6.474-9.438l20.555,20.551l-72.902,72.827
		c-3.125,3.123-3.128,8.188-0.006,11.314c1.563,1.564,3.611,2.346,5.66,2.346c2.046,0,4.092-0.78,5.654-2.34l78.565-78.485
		c1.501-1.501,2.346-3.536,2.346-5.658C326.04,125.068,325.198,123.033,323.697,121.532z"/>
</g>
<g>
</g>
<g>
</g>
<g>
</g>
<g>
</g>
<g>
</g>
<g>
</g>
<g>
</g>
<g>
</g>
<g>
</g>
<g>
</g>
<g>
</g>
<g>
</g>
<g>
</g>
<g>
</g>
<g>
</g>
</svg>
