<?xml version="1.0" encoding="iso-8859-1"?>
<!-- Generator: Adobe Illustrator 18.0.0, SVG Export Plug-In . SVG Version: 6.00 Build 0)  -->
<!DOCTYPE svg PUBLIC "-//W3C//DTD SVG 1.1//EN" "http://www.w3.org/Graphics/SVG/1.1/DTD/svg11.dtd">
<svg version="1.1" id="Capa_1" xmlns="http://www.w3.org/2000/svg" xmlns:xlink="http://www.w3.org/1999/xlink" x="0px" y="0px"
	 viewBox="0 0 324.953 324.953" style="enable-background:new 0 0 324.953 324.953;" xml:space="preserve">
<g>
	<polygon points="87.682,284.443 108.892,305.665 275.764,138.611 254.554,117.386 	"/>
	<polygon points="197.815,37.971 287.072,127.29 304.748,109.594 215.491,20.276 	"/>
	<path d="M304.807,20.713c-22.454-22.453-55.487-26.666-77.4-11.149l88.2,88.262C331.18,75.934,327.099,43.005,304.807,20.713z"/>
	<polygon points="243.245,106.069 218.916,81.723 52.041,248.781 76.373,273.127 	"/>
	<path d="M0.052,317.848c-0.244,1.842,0.38,3.693,1.688,5.013c1.134,1.143,2.67,1.774,4.259,1.774c0.246,0,0.493-0.015,0.74-0.046
		l36.89-4.581L4.893,281.262L0.052,317.848z"/>
	<polygon points="207.606,70.406 186.506,49.292 19.63,216.351 40.73,237.464 	"/>
	<path d="M35.066,254.455c-0.083-0.083-0.154-0.172-0.233-0.258l-23.276-23.289l-4.019,30.369l56.218,56.232l30.562-3.795
		l-59-59.033C35.234,254.605,35.146,254.536,35.066,254.455z"/>
</g>
<g>
</g>
<g>
</g>
<g>
</g>
<g>
</g>
<g>
</g>
<g>
</g>
<g>
</g>
<g>
</g>
<g>
</g>
<g>
</g>
<g>
</g>
<g>
</g>
<g>
</g>
<g>
</g>
<g>
</g>
</svg>
