<?xml version="1.0" encoding="iso-8859-1"?>
<!-- Generator: Adobe Illustrator 18.0.0, SVG Export Plug-In . SVG Version: 6.00 Build 0)  -->
<!DOCTYPE svg PUBLIC "-//W3C//DTD SVG 1.1//EN" "http://www.w3.org/Graphics/SVG/1.1/DTD/svg11.dtd">
<svg version="1.1" id="Capa_1" xmlns="http://www.w3.org/2000/svg" xmlns:xlink="http://www.w3.org/1999/xlink" x="0px" y="0px"
	 viewBox="0 0 318.145 318.145" style="enable-background:new 0 0 318.145 318.145;" xml:space="preserve">
<path d="M290.737,172.977L167.085,0.037l-0.032,145.67c5.628,1.368,10.794,4.186,15.012,8.261
	c6.207,5.996,9.624,13.985,9.622,22.496c-0.002,17.479-14.635,31.705-32.617,31.71c-0.001,0-0.008,0-0.008,0
	c-17.979-0.002-32.607-14.224-32.607-31.703c0.004-14.793,10.482-27.252,24.599-30.74L151.085,0L27.403,172.975
	c-1.028,1.439-1.365,3.26-0.929,4.974s1.61,3.149,3.202,3.92c0.156,0.076,15.811,7.766,31.188,24.292
	c19.01,20.429,29.274,44.705,30.568,72.232H73.9c-3.313,0-6,2.687-6,6v27.752c0,3.314,2.687,6,6,6h170.342c3.314,0,6-2.686,6-6
	v-27.752c0-3.313-2.686-6-6-6h-17.532c1.295-27.527,11.559-51.804,30.567-72.231c15.378-16.526,31.031-24.216,31.179-24.287
	c1.598-0.768,2.773-2.201,3.213-3.918C292.109,176.24,291.768,174.417,290.737,172.977z"/>
<g>
</g>
<g>
</g>
<g>
</g>
<g>
</g>
<g>
</g>
<g>
</g>
<g>
</g>
<g>
</g>
<g>
</g>
<g>
</g>
<g>
</g>
<g>
</g>
<g>
</g>
<g>
</g>
<g>
</g>
</svg>
