<?xml version="1.0" encoding="iso-8859-1"?>
<!-- Generator: Adobe Illustrator 18.0.0, SVG Export Plug-In . SVG Version: 6.00 Build 0)  -->
<!DOCTYPE svg PUBLIC "-//W3C//DTD SVG 1.1//EN" "http://www.w3.org/Graphics/SVG/1.1/DTD/svg11.dtd">
<svg version="1.1" id="Capa_1" xmlns="http://www.w3.org/2000/svg" xmlns:xlink="http://www.w3.org/1999/xlink" x="0px" y="0px"
	 viewBox="0 0 325 325" style="enable-background:new 0 0 325 325;" xml:space="preserve">
<g>
	<path d="M54.537,319c0,3.314,2.687,6,6,6h203.926c3.314,0,6-2.686,6-6V123.883H54.537V319z M222.066,146.527
		c7.897,0,14.296,6.14,14.296,13.713c0,7.573-6.399,13.714-14.296,13.714c-7.893,0-14.295-6.141-14.295-13.714
		C207.771,152.667,214.173,146.527,222.066,146.527z M222.066,203.469c7.897,0,14.296,6.142,14.296,13.713
		c0,7.574-6.399,13.713-14.296,13.713c-7.893,0-14.295-6.139-14.295-13.713C207.771,209.61,214.173,203.469,222.066,203.469z
		 M222.066,260.41c7.897,0,14.296,6.14,14.296,13.714c0,7.573-6.399,13.712-14.296,13.712c-7.893,0-14.295-6.139-14.295-13.712
		C207.771,266.55,214.173,260.41,222.066,260.41z M162.5,146.527c7.895,0,14.295,6.141,14.295,13.713
		c0,7.574-6.399,13.714-14.295,13.714c-7.893,0-14.297-6.14-14.297-13.714C148.203,152.668,154.607,146.527,162.5,146.527z
		 M162.5,203.469c7.895,0,14.295,6.139,14.295,13.711c0,7.574-6.399,13.715-14.295,13.715c-7.893,0-14.297-6.141-14.297-13.715
		C148.203,209.607,154.607,203.469,162.5,203.469z M162.5,260.41c7.895,0,14.295,6.14,14.295,13.714
		c0,7.573-6.399,13.712-14.295,13.712c-7.893,0-14.297-6.139-14.297-13.712C148.203,266.55,154.607,260.41,162.5,260.41z
		 M102.934,146.527c7.894,0,14.293,6.14,14.293,13.713c0,7.573-6.399,13.714-14.293,13.714c-7.895,0-14.296-6.141-14.296-13.714
		C88.638,152.667,95.039,146.527,102.934,146.527z M102.934,203.469c7.894,0,14.293,6.142,14.293,13.713
		c0,7.574-6.399,13.713-14.293,13.713c-7.895,0-14.296-6.139-14.296-13.713C88.638,209.61,95.039,203.469,102.934,203.469z
		 M102.934,260.41c7.894,0,14.293,6.14,14.293,13.714c0,7.573-6.399,13.712-14.293,13.712c-7.895,0-14.296-6.139-14.296-13.712
		C88.638,266.55,95.039,260.41,102.934,260.41z"/>
	<path d="M264.463,0H60.537c-3.313,0-6,2.687-6,6v101.883h215.926V6C270.463,2.687,267.776,0,264.463,0z M229.797,81.447
		c0,3.313-2.687,6-6,6H101.202c-3.313,0-6-2.687-6-6V40.435c0-3.313,2.687-6,6-6h122.595c3.313,0,6,2.687,6,6V81.447z"/>
</g>
<g>
</g>
<g>
</g>
<g>
</g>
<g>
</g>
<g>
</g>
<g>
</g>
<g>
</g>
<g>
</g>
<g>
</g>
<g>
</g>
<g>
</g>
<g>
</g>
<g>
</g>
<g>
</g>
<g>
</g>
</svg>
