<?xml version="1.0" encoding="iso-8859-1"?>
<!-- Generator: Adobe Illustrator 18.0.0, SVG Export Plug-In . SVG Version: 6.00 Build 0)  -->
<!DOCTYPE svg PUBLIC "-//W3C//DTD SVG 1.1//EN" "http://www.w3.org/Graphics/SVG/1.1/DTD/svg11.dtd">
<svg version="1.1" id="Capa_1" xmlns="http://www.w3.org/2000/svg" xmlns:xlink="http://www.w3.org/1999/xlink" x="0px" y="0px"
	 viewBox="0 0 329 329" style="enable-background:new 0 0 329 329;" xml:space="preserve">
<g>
	<path d="M9.273,275.58c-0.921,2.239-0.406,4.814,1.306,6.525l8.451,8.453L2.343,307.245c-3.124,3.125-3.124,8.19,0,11.315
		c1.563,1.561,3.609,2.343,5.657,2.343c2.048,0,4.095-0.781,5.657-2.343l16.686-16.686l13.4,13.401
		c1.148,1.149,2.684,1.758,4.244,1.758c0.797,0,1.601-0.158,2.362-0.485l73.436-31.465L39.89,201.188L9.273,275.58z"/>
	<path d="M326.656,119.718l-17.514-17.51c5.827-9.187,8.503-20.274,7.616-32.132c-1.148-15.364-8.172-30.217-19.775-41.819
		c-24.389-24.389-61.44-27.018-82.598-5.862c-0.002,0.002-0.003,0.004-0.004,0.005L49.057,187.725l88.111,88.111l161.488-161.488
		l11.026,11.024L236.78,198.2c-3.125,3.123-3.128,8.188-0.006,11.314c1.563,1.564,3.611,2.346,5.66,2.346
		c2.046,0,4.092-0.78,5.654-2.34l78.565-78.485c1.501-1.501,2.346-3.536,2.346-5.658C329,123.254,328.157,121.218,326.656,119.718z"
		/>
</g>
<g>
</g>
<g>
</g>
<g>
</g>
<g>
</g>
<g>
</g>
<g>
</g>
<g>
</g>
<g>
</g>
<g>
</g>
<g>
</g>
<g>
</g>
<g>
</g>
<g>
</g>
<g>
</g>
<g>
</g>
</svg>
