<?xml version="1.0" encoding="iso-8859-1"?>
<!-- Generator: Adobe Illustrator 18.0.0, SVG Export Plug-In . SVG Version: 6.00 Build 0)  -->
<!DOCTYPE svg PUBLIC "-//W3C//DTD SVG 1.1//EN" "http://www.w3.org/Graphics/SVG/1.1/DTD/svg11.dtd">
<svg version="1.1" id="Capa_1" xmlns="http://www.w3.org/2000/svg" xmlns:xlink="http://www.w3.org/1999/xlink" x="0px" y="0px"
	 viewBox="0 0 325 325" style="enable-background:new 0 0 325 325;" xml:space="preserve">
<path d="M308.231,120.078c0.422-4.886-1.261-9.972-5.034-13.761L202.487,5.148C199.184,1.828,194.825,0,190.214,0
	c-4.438,0-8.588,1.714-11.682,4.823l-72.909,73.242l120.788,121.243c1.494,1.5,2.333,3.531,2.332,5.649v0.465l67.525-67.834
	l0.034,16.48l-158.34,157.645c-0.825,0.829-1.953,1.286-3.175,1.286c-1.396,0.001-2.735-0.571-3.748-1.589L28.697,207.589
	l0.03-14.055l93.787,94.216c3.302,3.316,7.661,5.144,12.273,5.144c4.439,0,8.588-1.713,11.681-4.821l66.27-66.572l0.004-13.241
	L94.334,89.405l-72.853,73.186c-3.497,3.514-5.051,8.256-4.715,12.932c0,0.007-0.001,0.015-0.001,0.015l-0.073,34.494
	c-0.003,1.581,0.617,3.099,1.726,4.225l104.095,105.6c3.303,3.318,7.662,5.146,12.275,5.145c4.438,0,8.587-1.713,11.661-4.803
	l160.091-159.389c1.134-1.129,1.77-2.664,1.767-4.265L308.231,120.078z"/>
<g>
</g>
<g>
</g>
<g>
</g>
<g>
</g>
<g>
</g>
<g>
</g>
<g>
</g>
<g>
</g>
<g>
</g>
<g>
</g>
<g>
</g>
<g>
</g>
<g>
</g>
<g>
</g>
<g>
</g>
</svg>
