<?xml version="1.0" encoding="iso-8859-1"?>
<!-- Generator: Adobe Illustrator 18.0.0, SVG Export Plug-In . SVG Version: 6.00 Build 0)  -->
<!DOCTYPE svg PUBLIC "-//W3C//DTD SVG 1.1//EN" "http://www.w3.org/Graphics/SVG/1.1/DTD/svg11.dtd">
<svg version="1.1" id="Capa_1" xmlns="http://www.w3.org/2000/svg" xmlns:xlink="http://www.w3.org/1999/xlink" x="0px" y="0px"
	 viewBox="0 0 325 325" style="enable-background:new 0 0 325 325;" xml:space="preserve">
<g>
	<path d="M1.734,299.962c-1.466,1.482-2.058,3.62-1.563,5.646c0.495,2.025,2.007,3.648,3.992,4.286l34.242,11.005
		c0.603,0.194,1.222,0.288,1.835,0.288c1.578,0,3.121-0.623,4.266-1.779l7.153-7.23l-31.008-31.337L1.734,299.962z"/>
	<path d="M25.806,263.303l42.358,42.808c16.493-14.41,34.162-21.977,51.532-21.977c7.454,0,14.79,1.446,21.848,4.278l-98.277-99.321
		C52.554,212.777,46.238,239.308,25.806,263.303z"/>
	<path d="M323.264,64.72L264.758,5.594c-2.176-2.201-5.672-2.384-8.069-0.42L50.832,173.988l105.732,106.854L323.679,72.696
		C325.588,70.319,325.41,66.888,323.264,64.72z"/>
</g>
<g>
</g>
<g>
</g>
<g>
</g>
<g>
</g>
<g>
</g>
<g>
</g>
<g>
</g>
<g>
</g>
<g>
</g>
<g>
</g>
<g>
</g>
<g>
</g>
<g>
</g>
<g>
</g>
<g>
</g>
</svg>
