<?xml version="1.0" encoding="iso-8859-1"?>
<!-- Generator: Adobe Illustrator 18.0.0, SVG Export Plug-In . SVG Version: 6.00 Build 0)  -->
<!DOCTYPE svg PUBLIC "-//W3C//DTD SVG 1.1//EN" "http://www.w3.org/Graphics/SVG/1.1/DTD/svg11.dtd">
<svg version="1.1" id="Capa_1" xmlns="http://www.w3.org/2000/svg" xmlns:xlink="http://www.w3.org/1999/xlink" x="0px" y="0px"
	 viewBox="0 0 324.745 324.745" style="enable-background:new 0 0 324.745 324.745;" xml:space="preserve">
<path d="M293.772,68.37l30.973-0.047V6.951c0-2.424-1.458-4.609-3.695-5.54c-2.236-0.929-4.815-0.424-6.534,1.284L1.771,313.537
	c-1.724,1.714-2.244,4.297-1.317,6.544c0.927,2.246,3.117,3.712,5.547,3.712h312.744c3.313,0,6-2.686,6-6v-21.142l-31.195,0.05
	c-0.004,0-0.009,0-0.013,0c-4.413,0-7.993-3.573-8-7.987c-0.007-4.418,3.569-8.006,7.987-8.013l31.221-0.05v-26.327l-31.353,0.048
	c-0.004,0-0.008,0-0.012,0c-4.413,0-7.993-3.573-8-7.988c-0.007-4.418,3.569-8.005,7.988-8.012l31.376-0.048v-26.503l-30.994,0.048
	c-0.004,0-0.009,0-0.013,0c-4.413,0-7.993-3.573-8-7.987c-0.007-4.419,3.569-8.006,7.987-8.013l31.02-0.048v-26.498l-31.151,0.048
	c-0.004,0-0.008,0-0.012,0c-4.413,0-7.993-3.573-8-7.988c-0.007-4.418,3.569-8.005,7.988-8.012l31.175-0.048v-26l-31.052,0.048
	c-0.004,0-0.008,0-0.012,0c-4.413,0-7.993-3.573-8-7.988c-0.007-4.418,3.569-8.005,7.988-8.012l31.075-0.048v-27l-30.949,0.047
	c-0.004,0-0.008,0-0.012,0c-4.413,0-7.993-3.574-8-7.988C285.777,71.964,289.353,68.377,293.772,68.37z M251.628,251.041h-83.52
	l83.52-83.013V251.041z"/>
<g>
</g>
<g>
</g>
<g>
</g>
<g>
</g>
<g>
</g>
<g>
</g>
<g>
</g>
<g>
</g>
<g>
</g>
<g>
</g>
<g>
</g>
<g>
</g>
<g>
</g>
<g>
</g>
<g>
</g>
</svg>
