<?xml version="1.0" encoding="iso-8859-1"?>
<!-- Generator: Adobe Illustrator 18.0.0, SVG Export Plug-In . SVG Version: 6.00 Build 0)  -->
<!DOCTYPE svg PUBLIC "-//W3C//DTD SVG 1.1//EN" "http://www.w3.org/Graphics/SVG/1.1/DTD/svg11.dtd">
<svg version="1.1" id="Capa_1" xmlns="http://www.w3.org/2000/svg" xmlns:xlink="http://www.w3.org/1999/xlink" x="0px" y="0px"
	 viewBox="0 0 324.989 324.989" style="enable-background:new 0 0 324.989 324.989;" xml:space="preserve">
<g>
	<path d="M138.836,85.747c-4.32-4.096-9.963-6.359-15.95-6.359c-6.207,0-12.033,2.408-16.407,6.781l-50.782,50.765
		c-1.125,1.125-1.758,2.651-1.758,4.242c0,1.592,0.632,3.118,1.758,4.244l2.476,2.476l-56.409,56.39
		c-1.126,1.125-1.758,2.651-1.758,4.242c0,1.592,0.632,3.118,1.757,4.243l16.476,16.476l30.935-31.005
		c3.12-3.128,8.186-3.135,11.313-0.013c3.128,3.12,3.134,8.186,0.013,11.314l-30.947,31.018l10.78,10.78l31.409-31.48
		c3.12-3.128,8.186-3.135,11.313-0.013c3.128,3.12,3.134,8.186,0.013,11.313l-31.422,31.492l10.78,10.78l31.622-31.697
		c3.121-3.129,8.187-3.134,11.314-0.014c3.128,3.121,3.134,8.186,0.014,11.314L73.74,284.749l10.78,10.78l31.842-31.913
		c3.121-3.129,8.187-3.134,11.313-0.013c3.128,3.121,3.134,8.186,0.013,11.314l-31.854,31.926l16.389,16.389
		c1.171,1.172,2.707,1.758,4.242,1.758c1.535,0,3.07-0.586,4.242-1.757l56.409-56.391l2.466,2.466
		c1.126,1.126,2.652,1.758,4.243,1.758c1.592,0,3.118-0.633,4.243-1.758l50.766-50.783c8.861-8.86,9.012-23.278,0.391-32.386
		L138.836,85.747z"/>
	<path d="M315.256,9.832c-0.027-0.027-0.056-0.056-0.083-0.083C308.762,3.462,300.265,0,291.248,0
		c-9.141,0-17.72,3.543-24.157,9.976c-0.067,0.067-0.134,0.137-0.198,0.208l-86.196,94.795l39.327,39.328l94.796-86.197
		c0.071-0.064,0.14-0.13,0.207-0.198C328.214,44.72,328.316,23.151,315.256,9.832z"/>
</g>
<g>
</g>
<g>
</g>
<g>
</g>
<g>
</g>
<g>
</g>
<g>
</g>
<g>
</g>
<g>
</g>
<g>
</g>
<g>
</g>
<g>
</g>
<g>
</g>
<g>
</g>
<g>
</g>
<g>
</g>
</svg>
