<?xml version="1.0" encoding="iso-8859-1"?>
<!-- Generator: Adobe Illustrator 18.0.0, SVG Export Plug-In . SVG Version: 6.00 Build 0)  -->
<!DOCTYPE svg PUBLIC "-//W3C//DTD SVG 1.1//EN" "http://www.w3.org/Graphics/SVG/1.1/DTD/svg11.dtd">
<svg version="1.1" id="Capa_1" xmlns="http://www.w3.org/2000/svg" xmlns:xlink="http://www.w3.org/1999/xlink" x="0px" y="0px"
	 viewBox="0 0 325 325" style="enable-background:new 0 0 325 325;" xml:space="preserve">
<g>
	<path d="M87.783,108.5c0.002,0,0.003,0,0.004,0c2.582,0,5.132-0.189,7.643-0.543l21.982,27.784
		c12.878-16.282,25.045-31.664,34.875-44.092l-13.791-17.428c1.719-4.317,2.898-8.876,3.47-13.597
		c1.737-14.354-2.262-28.52-11.26-39.89C120.284,7.561,104.613,0.011,87.711,0.011c-12.301,0-23.932,3.995-33.633,11.533
		C42.569,20.48,35.269,33.35,33.524,47.742c-1.74,14.354,2.258,28.568,11.259,39.947C55.209,100.859,70.881,108.5,87.783,108.5z
		 M54.294,50.145c1.078-8.888,5.583-16.807,12.687-22.322c5.983-4.649,13.157-7.101,20.744-7.101
		c10.422,0,20.087,4.664,26.516,12.791c5.557,7.022,8.025,15.773,6.952,24.64c-1.075,8.89-5.58,16.773-12.683,22.291
		c-5.983,4.649-13.156,7.057-20.741,7.057c0,0-0.001,0-0.003,0c-10.421,0-20.087-4.609-26.519-12.736
		C55.688,67.738,53.219,59.012,54.294,50.145z"/>
	<path d="M229.693,107.813c2.476,0.337,4.989,0.518,7.533,0.518c16.9,0,32.57-7.555,42.992-20.728
		c8.998-11.376,12.997-25.546,11.259-39.901c-1.743-14.392-9.039-27.241-20.545-36.18C261.224,3.984,249.59,0,237.29,0
		c-16.902,0-32.573,7.556-42.996,20.73c-8.998,11.371-12.996,25.539-11.258,39.893c0.572,4.726,1.755,9.279,3.478,13.588
		C169.288,95.983,66.03,226.494,43.768,254.622c-11.358,14.359-13.681,30.905-6.716,47.849c5.07,12.334,13.362,20.488,13.713,20.829
		c1.124,1.094,2.627,1.7,4.185,1.7c0.129,0,0.259-0.004,0.389-0.013c1.694-0.11,3.263-0.933,4.316-2.265L162.622,192.88
		c12.617-15.951,34.762-44.23,34.762-44.23L229.693,107.813z M203.807,50.146c1.077-8.889,5.583-16.808,12.687-22.323
		c5.983-4.649,13.157-7.101,20.744-7.101c10.42,0,20.085,4.664,26.515,12.791c5.558,7.022,8.026,15.774,6.953,24.641
		c-1.077,8.89-5.581,16.772-12.685,22.29c-5.982,4.649-13.155,7.057-20.74,7.057c0,0-0.001,0-0.003,0
		c-10.422,0-20.088-4.609-26.52-12.736C205.201,67.738,202.732,59.013,203.807,50.146z M162.501,156.487
		c-4.327,0-7.837-3.513-7.837-7.838c0-4.327,3.51-7.837,7.837-7.837c4.326,0,7.837,3.51,7.837,7.837
		C170.337,152.975,166.827,156.487,162.501,156.487z"/>
	<path d="M281.231,254.623c-11.152-14.105-42.691-53.963-73.534-92.94c-10.282,13.001-22.382,28.298-34.874,44.092l92.524,116.948
		c1.054,1.332,2.622,2.154,4.316,2.265c0.13,0.009,0.26,0.013,0.389,0.013c1.558,0,3.062-0.606,4.185-1.7
		c0.351-0.341,8.642-8.496,13.712-20.83C294.913,285.526,292.589,268.981,281.231,254.623z"/>
</g>
<g>
</g>
<g>
</g>
<g>
</g>
<g>
</g>
<g>
</g>
<g>
</g>
<g>
</g>
<g>
</g>
<g>
</g>
<g>
</g>
<g>
</g>
<g>
</g>
<g>
</g>
<g>
</g>
<g>
</g>
</svg>
