<?xml version="1.0" encoding="iso-8859-1"?>
<!-- Generator: Adobe Illustrator 18.0.0, SVG Export Plug-In . SVG Version: 6.00 Build 0)  -->
<!DOCTYPE svg PUBLIC "-//W3C//DTD SVG 1.1//EN" "http://www.w3.org/Graphics/SVG/1.1/DTD/svg11.dtd">
<svg version="1.1" id="Capa_1" xmlns="http://www.w3.org/2000/svg" xmlns:xlink="http://www.w3.org/1999/xlink" x="0px" y="0px"
	 viewBox="0 0 325 325" style="enable-background:new 0 0 325 325;" xml:space="preserve">
<g>
	<path d="M23.177,244.78c-0.693,0.692-1.206,1.544-1.493,2.48L0.264,317.006c-0.652,2.124-0.078,4.434,1.494,6.005
		c1.142,1.142,2.675,1.757,4.243,1.757c0.588,0,1.182-0.087,1.762-0.265l69.742-21.426c0.937-0.287,1.788-0.8,2.48-1.493
		l111.752-111.751l-56.807-56.808L23.177,244.78z"/>
	<path d="M312.724,16.641l-4.15-4.151c-16.344-16.344-42.938-16.343-59.279,0.001l-76.068,76.068l-5.738-5.737
		c-3.779-3.778-8.806-5.86-14.153-5.861c-0.002,0-0.004,0-0.006,0c-5.351,0-10.378,2.082-14.16,5.866l-1.618,1.621
		c-3.781,3.78-5.864,8.81-5.864,14.159c-0.001,5.351,2.082,10.379,5.863,14.159l74.903,74.902c3.78,3.781,8.809,5.864,14.159,5.864
		c5.35,0,10.378-2.083,14.16-5.865l1.62-1.621c7.806-7.812,7.805-20.516,0-28.318l-5.733-5.736l76.069-76.066
		c0.053-0.053,0.105-0.107,0.154-0.16c7.817-7.897,12.119-18.358,12.118-29.483C325,35.082,320.64,24.555,312.724,16.641z"/>
</g>
<g>
</g>
<g>
</g>
<g>
</g>
<g>
</g>
<g>
</g>
<g>
</g>
<g>
</g>
<g>
</g>
<g>
</g>
<g>
</g>
<g>
</g>
<g>
</g>
<g>
</g>
<g>
</g>
<g>
</g>
</svg>
