<?xml version="1.0" encoding="iso-8859-1"?>
<!-- Generator: Adobe Illustrator 18.0.0, SVG Export Plug-In . SVG Version: 6.00 Build 0)  -->
<!DOCTYPE svg PUBLIC "-//W3C//DTD SVG 1.1//EN" "http://www.w3.org/Graphics/SVG/1.1/DTD/svg11.dtd">
<svg version="1.1" id="Capa_1" xmlns="http://www.w3.org/2000/svg" xmlns:xlink="http://www.w3.org/1999/xlink" x="0px" y="0px"
	 viewBox="0 0 325 325" style="enable-background:new 0 0 325 325;" xml:space="preserve">
<g>
	<path d="M298.955,245.417c-6.041-14.197-16.087-26.901-22.674-34.338c4.324-3.157,7.14-8.17,7.14-13.823v-13.41
		c0-9.535-7.973-17.292-17.771-17.292h-79.764c-9.801,0-17.773,7.757-17.773,17.292v13.41c0,5.654,2.815,10.667,7.141,13.824
		c-6.586,7.436-16.632,20.141-22.673,34.337H298.955z"/>
	<path d="M303.612,261.417H147.923c-0.305,2.138-0.471,4.278-0.471,6.409c0,30.857,35.963,55.146,37.494,56.166
		c0.984,0.655,2.142,1.005,3.324,1.005h74.996c1.183,0,2.34-0.35,3.324-1.005c1.531-1.02,37.492-25.309,37.492-56.166
		C304.083,265.695,303.917,263.555,303.612,261.417z"/>
	<path d="M133.176,108.444l-11.409-5.104l8.562-31.045c0.266-0.964,0.286-1.98,0.06-2.954C120.284,25.922,101.1,0,79.069,0
		C63.178,0,48.514,13.576,37.777,38.227C27.798,61.14,21.812,91.949,20.919,124.98c-0.026,0.982,0.188,1.955,0.626,2.835
		l13.83,27.797l-10.194,7.382c-1.753,1.27-2.687,3.386-2.442,5.536c3.73,32.847,20.7,60.278,34.331,77.559V133.664
		c0-12.131,9.869-22,22-22c12.131,0,22,9.869,22,22v108.619c15.729-23.631,36.281-63.194,36.281-108.619
		c0-6.72-0.214-13.491-0.637-20.125C136.571,111.315,135.21,109.354,133.176,108.444z"/>
	<path d="M79.069,127.664c-3.313,0-6,2.687-6,6V319c0,3.314,2.687,6,6,6c3.313,0,6-2.686,6-6V133.664
		C85.069,130.351,82.383,127.664,79.069,127.664z"/>
</g>
<g>
</g>
<g>
</g>
<g>
</g>
<g>
</g>
<g>
</g>
<g>
</g>
<g>
</g>
<g>
</g>
<g>
</g>
<g>
</g>
<g>
</g>
<g>
</g>
<g>
</g>
<g>
</g>
<g>
</g>
</svg>
