<?xml version="1.0" encoding="iso-8859-1"?>
<!-- Generator: Adobe Illustrator 18.0.0, SVG Export Plug-In . SVG Version: 6.00 Build 0)  -->
<!DOCTYPE svg PUBLIC "-//W3C//DTD SVG 1.1//EN" "http://www.w3.org/Graphics/SVG/1.1/DTD/svg11.dtd">
<svg version="1.1" id="Capa_1" xmlns="http://www.w3.org/2000/svg" xmlns:xlink="http://www.w3.org/1999/xlink" x="0px" y="0px"
	 viewBox="0 0 326.999 326.999" style="enable-background:new 0 0 326.999 326.999;" xml:space="preserve">
<g>
	<path d="M325.348,35.361c-5.16-6.143-10.614-12.102-16.211-17.71c-5.568-5.576-11.517-11.04-17.681-16.238
		c-2.385-2.008-5.91-1.86-8.114,0.348l-21.155,21.187c-9.78-7.74-16.235-11.528-16.666-11.778c-2.355-1.366-5.334-0.977-7.258,0.95
		l-20.998,21.031c10.13,7.368,25.128,19.308,41.81,36.014c16.598,16.622,28.566,31.66,36.009,41.878l20.985-21.018
		c1.956-1.96,2.317-5.004,0.874-7.367c-0.289-0.473-4.702-7.635-13.055-18.054l21.111-21.145
		C327.196,41.258,327.348,37.743,325.348,35.361z"/>
	<path d="M205.802,44.631L55.408,195.256c10.128,7.377,25.062,19.279,41.666,35.908c16.676,16.7,28.682,31.804,36.116,42.025
		l150.423-150.659c-6.892-9.639-18.882-25.057-35.861-42.062C230.628,63.32,215.301,51.407,205.802,44.631z"/>
	<path d="M85.752,242.469c-16.165-16.189-30.729-27.712-40.302-34.652l-24.68,87.574c-0.467,0.303-0.911,0.655-1.32,1.065
		L2.586,313.347c-3.122,3.127-3.118,8.191,0.009,11.313c1.562,1.56,3.606,2.339,5.652,2.339c2.05,0,4.099-0.783,5.661-2.348
		l16.864-16.891c0.373-0.374,0.699-0.777,0.983-1.199l88.841-23.442C113.57,273.424,101.926,258.667,85.752,242.469z"/>
</g>
<g>
</g>
<g>
</g>
<g>
</g>
<g>
</g>
<g>
</g>
<g>
</g>
<g>
</g>
<g>
</g>
<g>
</g>
<g>
</g>
<g>
</g>
<g>
</g>
<g>
</g>
<g>
</g>
<g>
</g>
</svg>
