<?xml version="1.0" encoding="iso-8859-1"?>
<!-- Generator: Adobe Illustrator 18.0.0, SVG Export Plug-In . SVG Version: 6.00 Build 0)  -->
<!DOCTYPE svg PUBLIC "-//W3C//DTD SVG 1.1//EN" "http://www.w3.org/Graphics/SVG/1.1/DTD/svg11.dtd">
<svg version="1.1" id="Capa_1" xmlns="http://www.w3.org/2000/svg" xmlns:xlink="http://www.w3.org/1999/xlink" x="0px" y="0px"
	 viewBox="0 0 325 325" style="enable-background:new 0 0 325 325;" xml:space="preserve">
<g>
	<path d="M205.446,325h5.462c1.708,0,3.335-0.728,4.474-2.002l36.096-40.387c0.983-1.1,1.526-2.523,1.526-3.998v-4.689h-47.558V325z
		"/>
	<path d="M109.714,249.314l-25.329,25.329c-2.646,2.645-6.161,4.1-9.9,4.1c-3.739,0-7.255-1.456-9.899-4.1
		c-2.643-2.645-4.1-6.16-4.1-9.899c0-3.74,1.456-7.256,4.1-9.9l26.118-26.118l3.892-32.969
		c2.818-23.875,10.994-58.385,33.936-87.207c4.198-5.274,10.472-8.299,17.213-8.299c0.837,0,1.678,0.048,2.513,0.144l5.571-16.604
		c1.143-3.405,3.124-6.511,5.727-8.974c25.442-24.104,53.29-42.82,78.414-52.699c5.16-2.028,10.177-3.67,15.035-4.927V6
		c0-3.313-2.687-6-6-6H21.422c-3.313,0-6,2.687-6,6v313c0,3.314,2.687,6,6,6h168.024v-59.075c0-4.418,3.582-8,8-8h55.558v-66.878
		c-33.681,31.01-75.632,44.684-105.566,50.693L109.714,249.314z"/>
	<path d="M300.405,38.822c-6.086-6.086-14.602-9.172-25.313-9.172c-9.237,0-19.819,2.318-31.451,6.893
		c-23.316,9.168-49.393,26.757-73.426,49.525c-0.77,0.729-1.355,1.646-1.691,2.651l-9.742,29.033l-12.01-1.922
		c-2.308-0.367-4.659,0.544-6.112,2.37c-20.672,25.969-28.089,57.496-30.671,79.371l-0.169,1.432l80.515-80.516
		c4.055-4.055,9.453-6.287,15.203-6.287c5.749,0,11.148,2.232,15.202,6.287c4.055,4.054,6.287,9.453,6.287,15.202
		c0,5.75-2.232,11.148-6.287,15.203l-77.974,77.975l1.621-0.325c29.355-5.894,71.002-19.575,102.715-51.288
		c4.761-4.761,9.404-9.707,13.802-14.704c1.601-1.818,2.058-4.353,1.192-6.613l-4.305-11.275l27.633-15.686
		c0.939-0.533,1.737-1.3,2.309-2.217C311.421,86.701,316.159,54.576,300.405,38.822z"/>
	<path d="M70.242,268.985c2.343,2.343,6.142,2.343,8.485,0l131.052-131.052c2.343-2.344,2.343-6.143,0-8.486
		c-2.343-2.342-6.142-2.342-8.485,0L70.242,260.5C67.899,262.843,67.899,266.643,70.242,268.985z"/>
</g>
<g>
</g>
<g>
</g>
<g>
</g>
<g>
</g>
<g>
</g>
<g>
</g>
<g>
</g>
<g>
</g>
<g>
</g>
<g>
</g>
<g>
</g>
<g>
</g>
<g>
</g>
<g>
</g>
<g>
</g>
</svg>
