<?xml version="1.0" encoding="iso-8859-1"?>
<!-- Generator: Adobe Illustrator 18.0.0, SVG Export Plug-In . SVG Version: 6.00 Build 0)  -->
<!DOCTYPE svg PUBLIC "-//W3C//DTD SVG 1.1//EN" "http://www.w3.org/Graphics/SVG/1.1/DTD/svg11.dtd">
<svg version="1.1" id="Capa_1" xmlns="http://www.w3.org/2000/svg" xmlns:xlink="http://www.w3.org/1999/xlink" x="0px" y="0px"
	 viewBox="0 0 324.992 324.992" style="enable-background:new 0 0 324.992 324.992;" xml:space="preserve">
<g>
	<path d="M176.952,145.799l-51.072,51.07c-1.204,1.205-1.321,3.046-0.263,4.105l18.699,18.7c0.614,0.613,1.364,0.704,1.874,0.72
		c0.823-0.018,1.616-0.366,2.232-0.981l51.053-51.055c-5.135-1.815-9.842-4.769-13.808-8.734
		C181.635,155.591,178.731,150.85,176.952,145.799z"/>
	<path d="M239.921,86.67c-1.061-1.058-2.899-0.94-4.104,0.263l-11.583,11.583c5.135,1.815,9.842,4.768,13.807,8.733
		c3.966,3.965,6.919,8.672,8.735,13.807l11.582-11.581c1.203-1.203,1.321-3.045,0.263-4.104L239.921,86.67z"/>
	<path d="M320.764,100.597l-75.04-75.042c-2.731-2.729-6.388-4.233-10.296-4.233c-4.05,0-7.878,1.598-10.777,4.498L53.536,196.935
		c-2.815,2.815-4.412,6.532-4.493,10.466c-0.072,3.459,1.033,6.722,3.125,9.354l77.389,77.389c2.553,2.029,5.709,3.139,9.054,3.139
		c4.052,0,7.879-1.598,10.776-4.497l171.116-171.115C326.384,115.788,326.501,106.334,320.764,100.597z M266.844,117.96
		l-18.052,18.05c-0.608,8.924-4.365,17.23-10.751,23.615c-6.383,6.383-14.689,10.139-23.61,10.748l-57.524,57.524
		c-2.988,2.989-6.901,4.49-10.778,4.49c-3.754,0-7.475-1.405-10.297-4.229l-18.7-18.7c-5.737-5.738-5.619-15.192,0.264-21.074
		l57.545-57.545c0.6-8.601,4.168-17.03,10.728-23.591c6.385-6.384,14.691-10.14,23.612-10.749l18.053-18.052
		c5.881-5.883,15.336-6.002,21.073-0.264l18.7,18.701C272.843,102.622,272.726,112.076,266.844,117.96z"/>
	<path d="M211.855,108.402c-6.687,0-12.974,2.604-17.702,7.332c-9.76,9.761-9.76,25.643,0.001,35.405
		c4.728,4.727,11.014,7.332,17.701,7.332c6.686,0,12.974-2.605,17.702-7.332c4.729-4.73,7.333-11.015,7.333-17.701
		c0,0,0-0.013,0-0.019c-0.005-6.68-2.608-12.961-7.333-17.686C224.828,111.006,218.542,108.402,211.855,108.402z M218.816,140.397
		c-3.845,3.846-10.077,3.846-13.922,0c-3.845-3.844-3.845-10.078,0-13.923c3.845-3.845,10.077-3.845,13.922,0
		C222.662,130.319,222.662,136.552,218.816,140.397z"/>
	<path d="M1.757,291.468c-1.698,1.698-2.22,4.245-1.326,6.475c0.893,2.23,3.03,3.711,5.432,3.766l85.203,1.96
		c0.046,0.001,0.092,0.002,0.138,0.002c1.59,0,3.116-0.631,4.242-1.758l9.625-9.625l-52.067-52.067L1.757,291.468z"/>
</g>
<g>
</g>
<g>
</g>
<g>
</g>
<g>
</g>
<g>
</g>
<g>
</g>
<g>
</g>
<g>
</g>
<g>
</g>
<g>
</g>
<g>
</g>
<g>
</g>
<g>
</g>
<g>
</g>
<g>
</g>
</svg>
