<?xml version="1.0" encoding="iso-8859-1"?>
<!-- Generator: Adobe Illustrator 18.0.0, SVG Export Plug-In . SVG Version: 6.00 Build 0)  -->
<!DOCTYPE svg PUBLIC "-//W3C//DTD SVG 1.1//EN" "http://www.w3.org/Graphics/SVG/1.1/DTD/svg11.dtd">
<svg version="1.1" id="Capa_1" xmlns="http://www.w3.org/2000/svg" xmlns:xlink="http://www.w3.org/1999/xlink" x="0px" y="0px"
	 viewBox="0 0 325.455 325.455" style="enable-background:new 0 0 325.455 325.455;" xml:space="preserve">
<g>
	<polygon points="97.82,137.535 187.762,227.887 240.012,182.243 144.448,86.322 	"/>
	<path d="M27.366,214.916c-1.649,1.812-2.032,4.445-0.965,6.651l11.122,23.001l-6.745,6.745l-3.671-3.667
		c-2.326-2.322-6.091-2.341-8.438-0.041L1.802,264.128c-1.145,1.121-1.794,2.654-1.802,4.257c-0.008,1.603,0.626,3.142,1.76,4.274
		l48.83,48.778c1.171,1.169,2.705,1.755,4.24,1.755c1.516,0,3.032-0.57,4.199-1.714l16.864-16.522
		c1.145-1.121,1.794-2.654,1.802-4.257c0.008-1.603-0.626-3.142-1.76-4.275l-3.379-3.376l6.737-6.737l23.163,11.237
		c2.167,1.051,4.752,0.705,6.566-0.88l66.664-58.235L87.035,149.38L27.366,214.916z"/>
	<path d="M323.697,106.998L220.719,4.021c-1.125-1.126-2.651-1.758-4.242-1.758c-1.592,0-3.117,0.632-4.243,1.758l-17.049,17.05
		c-2.343,2.343-2.343,6.142,0,8.484l0.497,0.497l-40.449,44.426l96.854,97.217l45.494-39.741l0.58,0.58
		c1.126,1.126,2.651,1.758,4.243,1.758c1.591,0,3.117-0.632,4.242-1.758l17.051-17.051c1.126-1.125,1.758-2.651,1.758-4.242
		C325.455,109.648,324.823,108.123,323.697,106.998z"/>
</g>
<g>
</g>
<g>
</g>
<g>
</g>
<g>
</g>
<g>
</g>
<g>
</g>
<g>
</g>
<g>
</g>
<g>
</g>
<g>
</g>
<g>
</g>
<g>
</g>
<g>
</g>
<g>
</g>
<g>
</g>
</svg>
