<?xml version="1.0" encoding="iso-8859-1"?>
<!-- Generator: Adobe Illustrator 18.0.0, SVG Export Plug-In . SVG Version: 6.00 Build 0)  -->
<!DOCTYPE svg PUBLIC "-//W3C//DTD SVG 1.1//EN" "http://www.w3.org/Graphics/SVG/1.1/DTD/svg11.dtd">
<svg version="1.1" id="Capa_1" xmlns="http://www.w3.org/2000/svg" xmlns:xlink="http://www.w3.org/1999/xlink" x="0px" y="0px"
	 viewBox="0 0 325 325" style="enable-background:new 0 0 325 325;" xml:space="preserve">
<g>
	<rect x="82.73" y="191.656" width="159.541" height="65.113"/>
	<path d="M216.732,129.252h-5.976V99.221c0-3.313-2.686-6-6-6h-10.391L174.988,4.717C174.385,1.963,171.946,0,169.127,0h-13.254
		c-2.819,0-5.258,1.963-5.861,4.717l-19.378,88.504h-10.39c-3.313,0-6,2.687-6,6v30.031h-5.978
		c-14.081,0-25.537,11.458-25.537,25.541v20.863H242.27v-20.863C242.27,140.71,230.814,129.252,216.732,129.252z"/>
	<path d="M82.729,299.46c0,14.083,11.456,25.54,25.537,25.54h108.466c14.082,0,25.538-11.457,25.538-25.54v-26.69H82.729V299.46z"/>
</g>
<g>
</g>
<g>
</g>
<g>
</g>
<g>
</g>
<g>
</g>
<g>
</g>
<g>
</g>
<g>
</g>
<g>
</g>
<g>
</g>
<g>
</g>
<g>
</g>
<g>
</g>
<g>
</g>
<g>
</g>
</svg>
