<?xml version="1.0" encoding="iso-8859-1"?>
<!-- Generator: Adobe Illustrator 18.0.0, SVG Export Plug-In . SVG Version: 6.00 Build 0)  -->
<!DOCTYPE svg PUBLIC "-//W3C//DTD SVG 1.1//EN" "http://www.w3.org/Graphics/SVG/1.1/DTD/svg11.dtd">
<svg version="1.1" id="Capa_1" xmlns="http://www.w3.org/2000/svg" xmlns:xlink="http://www.w3.org/1999/xlink" x="0px" y="0px"
	 viewBox="0 0 326 326" style="enable-background:new 0 0 326 326;" xml:space="preserve">
<path d="M266.319,290.782L237.01,202H242c4.418,0,8-3.582,8-8s-3.582-8-8-8h-10.271l-29.754-90.128
	c1.998-4.834,3.108-10.113,3.108-15.646c0-16.155-9.397-30.181-23.083-37.081V6c0-3.313-2.687-6-6-6h-26c-3.314,0-6,2.687-6,6
	v36.949c-13.899,6.828-23.474,20.969-23.474,37.277c0,5.735,1.184,11.203,3.323,16.18L94.273,186H84c-4.418,0-8,3.582-8,8
	s3.582,8,8,8h4.99l-29.31,88.782c-0.503,1.522-0.375,3.182,0.354,4.608c0.729,1.428,1.998,2.504,3.525,2.99l5.44,1.73V318
	c0,4.418,3.582,8,8,8c4.418,0,8-3.582,8-8v-12.799l1.773,0.563c0.604,0.192,1.217,0.284,1.819,0.284
	c2.521,0,4.866-1.603,5.697-4.123L127.23,202H155v11c0,4.418,3.582,8,8,8s8-3.582,8-8v-11h27.77l32.941,99.926
	c0.831,2.52,3.175,4.123,5.697,4.123c0.602,0,1.215-0.092,1.819-0.284l1.773-0.563V318c0,4.418,3.582,8,8,8s8-3.582,8-8v-17.889
	l5.44-1.73c1.527-0.486,2.797-1.563,3.525-2.99C266.694,293.964,266.822,292.304,266.319,290.782z M171,186v-11c0-4.418-3.582-8-8-8
	s-8,3.582-8,8v11h-22.495l21.447-65.061c2.856,0.602,5.817,0.926,8.854,0.926c3.165,0,6.246-0.355,9.215-1.008L193.495,186H171z"/>
<g>
</g>
<g>
</g>
<g>
</g>
<g>
</g>
<g>
</g>
<g>
</g>
<g>
</g>
<g>
</g>
<g>
</g>
<g>
</g>
<g>
</g>
<g>
</g>
<g>
</g>
<g>
</g>
<g>
</g>
</svg>
