<?xml version="1.0" encoding="iso-8859-1"?>
<!-- Generator: Adobe Illustrator 16.0.0, SVG Export Plug-In . SVG Version: 6.00 Build 0)  -->
<!DOCTYPE svg PUBLIC "-//W3C//DTD SVG 1.1//EN" "http://www.w3.org/Graphics/SVG/1.1/DTD/svg11.dtd">
<svg version="1.1" id="Layer_1" xmlns="http://www.w3.org/2000/svg" xmlns:xlink="http://www.w3.org/1999/xlink" x="0px" y="0px"
	 width="612.004px" height="612.004px" viewBox="0 0 612.004 612.004" style="enable-background:new 0 0 612.004 612.004;"
	 xml:space="preserve">
<path d="M397.55,142.496L142.489,397.558l-12.102-12.103l255.061-255.062L397.55,142.496z M413.53,158.47l66.201,66.2
	L224.667,479.734l-66.198-66.197L413.53,158.47z M340.282,319.104c0-5.662-2.203-10.98-6.203-14.982
	c-4.001-4.001-9.32-6.205-14.981-6.205c-11.681,0-21.183,9.504-21.185,21.187c0.002,11.679,9.504,21.183,21.185,21.183
	c5.661,0,10.98-2.203,14.981-6.205C338.079,330.081,340.282,324.763,340.282,319.104z M612.004,276.127
	c0,2.998-1.19,5.87-3.311,7.99l-84.153,84.151c-3.171,3.173-7.916,4.169-12.099,2.537c0,0-6.849-2.473-18.128-2.473
	c-19.576,0-50.116,7.204-84.448,41.537c-56.238,56.239-39.242,102.119-39.063,102.576c1.629,4.179,0.634,8.924-2.537,12.096
	l-84.149,84.15c-2.12,2.12-4.992,3.311-7.99,3.311c-2.996,0-5.87-1.19-7.988-3.311L3.309,343.861c-4.412-4.41-4.412-11.564,0-15.977
	l84.146-84.147c3.173-3.169,7.92-4.167,12.095-2.538c0.004,0,6.856,2.472,18.138,2.472c19.577,0,50.116-7.208,84.443-41.533
	c55.56-55.559,39.733-100.777,39.033-102.675c-1.631-4.179-0.601-8.83,2.57-12.001L327.88,3.313c2.12-2.121,4.991-3.311,7.989-3.311
	c2.994,0,5.87,1.19,7.988,3.309L608.69,268.143C610.81,270.261,612,273.135,612.004,276.127z M507.007,224.67
	c0-2.998-1.189-5.87-3.311-7.99l-82.166-82.165c-0.006-0.005-0.007-0.009-0.013-0.015c-0.006-0.006-0.01-0.008-0.016-0.014
	l-28.062-28.06c-4.408-4.414-11.565-4.414-15.976,0L106.423,377.469c-2.121,2.118-3.311,4.99-3.311,7.987
	c0,2.996,1.19,5.87,3.311,7.988l28.069,28.071c0.004,0.002,0.006,0.006,0.009,0.01c0.004,0.003,0.01,0.009,0.01,0.009l82.168,82.166
	c2.118,2.121,4.992,3.311,7.988,3.311s5.87-1.189,7.988-3.311l271.044-271.042C505.82,230.54,507.007,227.666,507.007,224.67z"/>
<g>
</g>
<g>
</g>
<g>
</g>
<g>
</g>
<g>
</g>
<g>
</g>
<g>
</g>
<g>
</g>
<g>
</g>
<g>
</g>
<g>
</g>
<g>
</g>
<g>
</g>
<g>
</g>
<g>
</g>
</svg>
