<svg version="1.0" xmlns="http://www.w3.org/2000/svg" width="933.333" height="933.333" viewBox="0 0 700 700"><path d="M156.7 36.2c-3 11.6-13.4 50.1-20.2 75.4-.8 2.8-6.9 25.5-13.6 50.5-6.6 25-14.1 52.8-16.5 61.9-4.7 17.5-5.1 19-5.8 21.7-.9 3.6-3.8 14.2-8.1 30.3-2.4 9.1-6.5 24.1-9 33.5-2.4 9.3-4.9 18.6-5.5 20.5-.6 1.9-2.4 8.7-4 15-1.7 6.3-3.7 13.7-4.4 16.5-.8 2.7-3.8 13.8-6.6 24.5s-5.8 21.7-6.5 24.5c-.8 2.7-3.1 11.1-5.1 18.5-1.9 7.4-9.2 34.4-16.1 60-6.9 25.6-12.6 47.4-12.6 48.5-.2 2.2 1.6 2.8 38.8 12.5 3.9 1 9.6 2.6 12.7 3.4 3.2.9 8.2 2.2 11 3 41.8 11.1 52.9 14.1 61.8 16.5 5.8 1.6 11.9 3.2 13.5 3.7 1.7.4 3.2.8 3.5.9.3.1 1.9.5 3.5 1 6.4 1.6 47.5 12.7 56 15 13.3 3.6 59.8 16.1 68.5 18.3 6.4 1.7 55.5 14.9 88.5 23.8 5.5 1.4 14.7 3.9 20.5 5.4 5.8 1.5 20.9 5.6 33.5 9 12.7 3.4 23.7 6.3 24.5 6.5.8.2 10.5 2.8 21.5 5.8 40.3 11 58.7 15.8 59 15.5.3-.4 6.4-23.5 7.1-26.8.2-1.4.9-3.6 1.4-5 .5-1.4 3.9-14 7.5-28 3.7-14 7.2-27.1 7.8-29 .6-1.9 1.2-4 1.3-4.5.2-1 5.1-19.4 24.1-90 5.7-21.5 11.5-43.1 12.8-48 2.2-8 9.2-34.2 14.5-54 1-3.9 5.5-20.5 9.9-37s12.5-46.9 18.1-67.5c5.6-20.6 10.3-38.3 10.5-39.3.2-1 .7-2.7 1-3.7.3-1 .8-2.7 1-3.7.2-1 4-15.3 8.5-31.8 9.3-34.4 13-48.8 12.7-49.1-.3-.2-28-7.5-30.1-8-1-.2-3.3-.8-5-1.3-1.7-.6-6.5-1.9-10.6-3-10.2-2.6-78.4-20.9-117-31.3-8-2.1-15.2-4-16.1-4.3-.9-.2-12-3.1-24.5-6.5-24.7-6.7-29.9-8.1-41.4-11.1-4.1-1.1-8.2-2.2-9-2.4-10.3-2.8-139.4-37.3-146-39.1-3-.8-6.2-1.7-7.1-1.9-.8-.2-7.6-2-15-4-7.4-2.1-13.8-3.8-14.4-3.9-.5-.2-3-.8-5.5-1.5-11.7-3.2-64.1-17.2-65.7-17.6-1-.2-3.4-.9-5.3-1.4-1.9-.6-3.7-1.1-4-1.1-.3 0-2.2 6.4-4.3 14.2z"/></svg>