<?xml version="1.0" standalone="no"?>
<!DOCTYPE svg PUBLIC "-//W3C//DTD SVG 20010904//EN"
 "http://www.w3.org/TR/2001/REC-SVG-20010904/DTD/svg10.dtd">
<svg version="1.0" xmlns="http://www.w3.org/2000/svg"
 width="700.000000pt" height="700.000000pt" viewBox="0 0 700.000000 700.000000"
 preserveAspectRatio="xMidYMid meet">
<metadata>
Created by potrace 1.11, written by Peter Selinger 2001-2013
</metadata>
<g transform="translate(0.000000,700.000000) scale(0.100000,-0.100000)"
fill="#000000" stroke="none">
<path d="M1567 6638 c-30 -116 -134 -501 -202 -754 -8 -28 -69 -255 -136 -505
-66 -250 -141 -528 -165 -619 -47 -175 -51 -190 -58 -217 -9 -36 -38 -142 -81
-303 -24 -91 -65 -241 -90 -335 -24 -93 -49 -186 -55 -205 -6 -19 -24 -87 -40
-150 -17 -63 -37 -137 -44 -165 -8 -27 -38 -138 -66 -245 -28 -107 -58 -217
-65 -245 -8 -27 -31 -111 -51 -185 -19 -74 -92 -344 -161 -600 -69 -256 -126
-474 -126 -485 -2 -22 16 -28 388 -125 39 -10 96 -26 127 -34 32 -9 82 -22
110 -30 418 -111 529 -141 618 -165 58 -16 119 -32 135 -37 17 -4 32 -8 35 -9
3 -1 19 -5 35 -10 64 -16 475 -127 560 -150 133 -36 598 -161 685 -183 64 -17
555 -149 885 -238 55 -14 147 -39 205 -54 58 -15 209 -56 335 -90 127 -34 237
-63 245 -65 8 -2 105 -28 215 -58 403 -110 587 -158 590 -155 3 4 64 235 71
268 2 14 9 36 14 50 5 14 39 140 75 280 37 140 72 271 78 290 6 19 12 40 13
45 2 10 51 194 241 900 57 215 115 431 128 480 22 80 92 342 145 540 10 39 55
205 99 370 44 165 125 469 181 675 56 206 103 383 105 393 2 10 7 27 10 37 3
10 8 27 10 37 2 10 40 153 85 318 93 344 130 488 127 491 -3 2 -280 75 -301
80 -10 2 -33 8 -50 13 -17 6 -65 19 -106 30 -102 26 -784 209 -1170 313 -80
21 -152 40 -161 43 -9 2 -120 31 -245 65 -247 67 -299 81 -414 111 -41 11 -82
22 -90 24 -103 28 -1394 373 -1460 391 -30 8 -62 17 -71 19 -8 2 -76 20 -150
40 -74 21 -138 38 -144 39 -5 2 -30 8 -55 15 -117 32 -641 172 -657 176 -10 2
-34 9 -53 14 -19 6 -37 11 -40 11 -3 0 -22 -64 -43 -142z"/>
</g>
</svg>
